<svg width="83" height="119" viewBox="0 0 83 119" fill="none" xmlns="http://www.w3.org/2000/svg">
<path d="M82.8931 -30.2745C83.5644 -28.2126 83.5644 -28.2606 80.8792 -5.00464C79.8243 4.39363 79.0571 12.2575 79.2009 12.4013C79.3448 12.5452 82.989 10.5792 87.2566 7.98991C95.4082 3.09898 100.539 0.653503 102.553 0.605553C104.854 0.605553 105.909 1.85226 105.909 4.48953C105.909 7.27066 105.046 9.62022 99.5798 21.7037C95.0725 31.6294 94.3533 33.8831 95.3602 34.8421C96.6549 36.0888 100.539 37.0478 120.582 41.0757C131.467 43.2814 141.201 45.4871 142.208 46.0146C145.612 47.6449 144.509 50.5698 139.762 52.344C138.42 52.8235 131.467 54.5497 124.322 56.18C104.567 60.6394 92.4832 64.3796 92.4832 66.0578C92.4832 66.4414 94.1615 68.5033 96.2233 70.709C103.656 78.6208 108.211 84.0392 108.547 85.3339C108.786 86.3408 108.642 86.8203 107.827 87.4916C106.964 88.2109 106.581 88.2109 104.711 87.6834C103.56 87.2998 97.6618 84.4228 91.668 81.2581C85.6742 78.0934 80.2079 75.4081 79.5366 75.2643C77.5706 74.7848 76.9952 75.552 76.8034 78.6208C76.7075 80.1552 76.3239 88.0191 75.9403 96.1227C74.9813 115.111 74.4059 118.084 71.6727 118.084C68.508 118.084 66.1105 113.145 59.0618 91.7592C56.0409 82.6487 53.3077 74.8807 52.9721 74.545C52.4926 74.0176 52.0131 74.3053 50.5266 75.9836C46.6906 80.347 36.0935 90.8482 34.8468 91.5195C31.9219 93.0539 30.2915 91.7113 30.771 88.1629C30.9629 87.0601 32.6891 80.8265 34.655 74.2094C36.621 67.6402 38.2034 62.1738 38.1075 62.0779C38.0116 61.982 35.0866 62.7013 31.6821 63.6603C23.4826 65.914 10.2483 68.6471 5.45325 68.9828C1.95288 69.2705 1.52132 69.2225 0.706161 68.3115C-1.16389 66.2017 -0.252838 65.1468 15.1872 50.7617C20.7974 45.5351 25.3047 40.9798 25.2088 40.6921C25.1129 40.4044 22.4277 38.6302 19.263 36.8081C11.3512 32.2049 6.79587 28.8004 5.83685 26.7385C5.06964 25.1082 5.06964 25.0123 6.02866 24.0533C7.37126 22.6627 13.3651 22.0394 21.0851 22.375C24.3937 22.5189 27.2707 22.5189 27.4145 22.3271C27.6063 22.1832 25.2088 19.4021 22.092 16.2374C13.1253 6.98296 5.54915 -1.79196 3.8709 -5.00464C2.52827 -7.49806 3.34343 -9.46403 5.69301 -9.46403C6.69997 -9.46403 16.1941 -4.76488 29.3805 2.18792C34.655 4.96904 39.0665 7.17476 39.2583 7.07886C39.4501 6.98296 39.498 1.94817 39.3542 -4.04563C39.1144 -16.5127 39.498 -18.7184 41.7037 -18.9582C43.3341 -19.15 43.6697 -18.6225 49.3279 -8.02551C54.1708 1.13301 56.0889 4.44158 56.6163 4.44158C56.8081 4.44158 57.7671 3.00307 58.822 1.18096C59.829 -0.593208 62.1306 -4.62104 63.9048 -7.78576C69.515 -17.6635 75.7965 -27.6372 77.7624 -29.8429C79.153 -31.4733 79.9681 -32.0007 80.9751 -32.0007C82.1259 -32.0007 82.4136 -31.713 82.8931 -30.2745ZM77.6665 -25.1438C74.6457 -20.5885 66.9256 -7.54601 63.0896 -0.497307C59.9249 5.40059 58.1028 7.79811 56.7122 7.79811C55.0819 7.79811 52.3967 4.01003 47.9852 -4.57309C45.4918 -9.32018 43.1902 -13.6357 42.8066 -14.1152C42.2312 -14.8824 42.1353 -14.8345 42.0394 -13.3C41.9914 -12.389 41.9435 -6.7788 41.8955 -0.832954V9.95588L40.6009 10.0997C39.6419 10.1956 34.8948 7.98991 23.4826 2.09202C14.8036 -2.41532 7.46716 -6.1075 7.17946 -6.1075C6.89177 -6.1075 6.65201 -5.96365 6.65201 -5.77184C6.65201 -4.86079 18.6396 8.66122 25.2568 15.3263C29.2846 19.3542 32.5452 22.9025 32.5452 23.2861C32.5452 24.9164 31.5383 25.0602 20.0302 25.0602C13.7487 25.0602 8.52208 25.2521 8.37822 25.4918C7.70692 26.4988 12.7897 30.1909 21.7084 35.1778C27.0789 38.1507 28.4694 39.5413 27.942 41.5552C27.7502 42.4183 23.6744 46.59 15.7146 54.1661C9.14543 60.3517 3.77499 65.6263 3.77499 65.866C3.77499 66.9689 10.2483 65.7701 25.9281 61.8861C41.0324 58.146 41.1763 58.146 41.1763 61.3107C41.1763 62.1738 40.1214 66.2496 38.8267 70.3254C35.5181 80.6347 33.5042 88.3547 34.0796 88.3547C34.7989 88.3547 39.6419 83.6077 45.3959 77.2303C51.3418 70.6131 52.3008 69.8939 53.6434 70.6131C55.1298 71.4283 56.1368 73.8258 60.5962 87.6355C66.6859 106.432 69.9465 114.727 71.3371 114.727C72.2481 114.727 72.6317 110.46 73.5428 90.2248C73.9264 81.354 74.4538 75.0725 74.7895 74.3053C76.228 71.1406 80.112 71.7639 89.1267 76.6069C98.8126 81.7855 103.56 84.1351 103.847 83.8474C104.183 83.5597 102.601 81.6896 95.8877 74.545C90.0857 68.3115 88.791 66.3455 89.5582 64.907C91.3324 61.6464 100.347 58.6255 126.048 52.6317C136.214 50.2822 139.954 49.1793 139.954 48.5559C139.954 48.0285 139.81 48.0285 119.815 44.0006C100.155 40.0687 96.9426 39.3015 94.3053 37.9589C90.3734 35.945 90.6611 33.8352 96.9426 19.8816C101.834 9.14072 103.272 5.25674 102.84 4.20184C102.409 3.00307 98.7647 4.68134 88.2636 10.9628C79.0091 16.5251 77.0432 17.4361 76.5157 16.5251C76.3719 16.3333 76.4678 14.9907 76.7075 13.5522C77.4747 8.61327 80.6874 -26.1028 80.5435 -28.0688C80.4476 -29.0757 80.112 -28.7401 77.6665 -25.1438Z" fill="#58BAC6"/>
<path d="M63.3301 16.6695C70.3309 18.4437 78.4345 24.2936 82.5103 30.5272C84.5242 33.6919 86.4422 39.1583 86.9217 43.3779C88.3602 55.2216 77.6673 65.0035 64.6727 63.7089C51.4864 62.3662 38.4439 51.1938 36.9095 39.9255C35.7107 30.8629 40.3619 21.6564 48.1778 17.8203C50.911 16.4777 51.87 16.2859 55.9458 16.1421C58.9187 16.0462 61.6039 16.238 63.3301 16.6695ZM49.6643 20.6974C46.5475 22.2318 42.9992 25.8281 41.3209 29.2325C40.1221 31.7739 39.9783 32.4932 39.9783 37.0484C39.9783 41.6517 40.1221 42.323 41.3688 44.9603C42.9992 48.2688 47.6983 53.2077 51.87 55.9409C66.4948 65.531 83.8529 59.7769 83.8529 45.3918C83.8529 39.1583 80.6402 30.9587 76.7083 27.0268C74.5985 24.965 67.3579 21.081 63.6658 20.0261C59.6859 18.9232 52.5892 19.2589 49.6643 20.6974Z" fill="#58BAC6"/>
<path d="M56.8568 32.5877C57.7678 32.9233 57.624 35.0331 56.665 35.5606C54.8908 36.5196 53.2605 34.2659 54.699 32.8274C55.3224 32.2041 55.8498 32.1561 56.8568 32.5877Z" fill="#58BAC6"/>
<path d="M72.1514 39.6369C72.6788 40.9796 72.1034 42.0824 70.8088 42.2263C69.3223 42.4181 68.5072 40.8357 69.4662 39.6849C70.2334 38.7738 71.8157 38.7738 72.1514 39.6369Z" fill="#58BAC6"/>
<path d="M57.1918 46.9719C56.9041 50.1846 57 50.8559 57.7672 51.8149C58.5344 52.7739 58.8701 52.8698 59.925 52.4862C61.0758 52.0067 62.85 50.1846 63.9528 48.3145C64.3844 47.5952 64.5282 47.5952 65.0077 48.1707C65.8709 49.1776 64.0487 52.5821 62.0348 53.8288C58.7262 55.8907 55.5136 54.4042 54.8423 50.5202C54.5546 48.6502 55.2738 44.958 56.1369 43.8551C57.1918 42.5605 57.4795 43.4236 57.1918 46.9719Z" fill="#58BAC6"/>
</svg>
