<svg width="45" height="44" viewBox="0 0 45 44" fill="none" xmlns="http://www.w3.org/2000/svg">
<g clip-path="url(#clip0_378_1991)">
<path d="M7.83398 20.166H37.1673" stroke="white" stroke-width="3.66667" stroke-linecap="round" stroke-linejoin="round"/>
<path d="M22.5007 11.916C22.5007 13.7493 13.334 20.166 7.83398 20.166" stroke="white" stroke-width="3.66667" stroke-linecap="round" stroke-linejoin="round"/>
<path d="M22.5 11.916C22.5 13.7493 31.6667 20.166 37.1667 20.166" stroke="white" stroke-width="3.66667" stroke-linecap="round" stroke-linejoin="round"/>
<path d="M11.5007 20.166C10.8902 29.9432 9.66732 36.0555 7.83398 38.4993H15.1673C17.0007 38.4993 22.5007 31.166 22.5007 21.9993V20.166" stroke="white" stroke-width="3.66667" stroke-linecap="round" stroke-linejoin="round"/>
<path d="M33.5 20.166C34.1105 29.9432 35.3333 36.0555 37.1667 38.4993H29.8333C28 38.4993 22.5 31.166 22.5 21.9993V20.166" stroke="white" stroke-width="3.66667" stroke-linecap="round" stroke-linejoin="round"/>
<path d="M22.5 12.8333V5.5L26.1667 7.33333H22.5" stroke="white" stroke-width="3.66667" stroke-linecap="round" stroke-linejoin="round"/>
</g>
<defs>
<clipPath id="clip0_378_1991">
<rect width="44" height="44" fill="white" transform="translate(0.5)"/>
</clipPath>
</defs>
</svg>
