<svg width="100" height="87" viewBox="0 0 100 87" fill="none" xmlns="http://www.w3.org/2000/svg">
<path d="M39.8683 1.04644C41.3656 1.64226 43.8611 3.1589 45.3583 4.40471C48.7411 7.2755 54.0648 14.2087 56.5603 19.0295C57.6139 21.0336 58.5567 22.7128 58.723 22.7128C58.834 22.7128 59.3885 21.9544 59.8321 21.0336C61.0522 18.7587 64.4349 15.2379 66.2649 14.2629C67.1522 13.8296 68.9822 13.5046 70.4241 13.5046C72.8087 13.5046 73.2523 13.7212 75.3041 15.8337C78.0769 18.6503 79.5187 22.2794 79.8515 27.3168C80.3506 33.9251 79.9069 33.4376 85.4524 33.4376C92.3843 33.4376 96.8207 35.1167 98.928 38.5833C100.98 41.8333 100.093 45.0291 96.2107 48.279C94.9907 49.254 92.828 50.4998 91.3307 50.9873C88.3916 52.0164 76.3578 53.5331 70.3686 53.6414C58.0021 53.8581 13.4716 52.9373 11.4198 52.3956C8.25884 51.6373 3.37878 47.304 1.49331 43.6208C-0.114891 40.5333 -0.503075 35.3334 0.716942 33.0043C3.65607 27.5335 9.58977 25.9627 20.3481 27.9127C23.0099 28.4002 25.339 28.671 25.5054 28.5627C25.6163 28.4002 25.2281 26.396 24.6181 24.0669C22.3999 15.5087 23.4536 7.70883 27.5018 3.42973C30.8846 -0.145214 34.711 -0.903534 39.8683 1.04644ZM31.3836 4.83804C27.0027 7.438 25.949 15.2379 28.7218 24.8252C29.9973 29.5376 30.0527 30.0793 29.3318 31.2168C28.1118 32.9501 27.7236 32.9501 18.7953 31.3251C13.5271 30.3501 12.1962 30.2418 9.58977 30.7835C6.04063 31.4876 4.21062 33.0584 3.60061 35.8209C2.93515 38.9083 3.93334 41.8874 6.7061 44.9207C11.198 49.7957 9.14613 49.5248 39.591 49.579C54.3975 49.6332 70.3132 49.7957 75.0269 49.9581C84.6206 50.2831 88.0588 49.6873 92.2734 47.1957C93.6598 46.3832 95.268 44.8124 95.8225 43.7291C96.8762 41.8874 96.8762 41.7249 95.9335 40.3166C94.2143 37.7708 91.1089 36.7959 84.4542 36.7959C80.1842 36.7959 78.3542 36.5792 77.9105 36.0917C77.5778 35.6584 77.0232 32.8959 76.746 29.8626C75.8032 21.0336 73.585 16.7545 69.8695 16.7545C67.4295 16.7545 63.5476 20.9253 61.7731 25.421C60.5531 28.4002 60.1649 28.9418 59.0003 28.9418C57.8358 28.9418 57.1703 28.1293 54.5639 23.2002C50.682 15.8879 49.2957 13.8837 45.0256 9.38797C39.8128 3.97139 35.3764 2.45475 31.3836 4.83804Z" fill="#F0B54C"/>
<path d="M50.58 60.3369C52.482 62.2342 54.9994 66.5557 54.9994 67.8733C54.9994 69.2962 53.3211 69.4016 51.8667 68.0841C48.678 65.2909 46.3285 59.3883 48.1186 58.8086C48.5102 58.6505 49.629 59.3356 50.58 60.3369Z" fill="#F0B54C"/>
<path d="M29.3384 62.3307C29.7592 62.8659 30.6008 64.5249 31.3021 66.0769C33.5463 71.2681 32.4242 73.6228 29.7125 69.3415C27.0007 65.1136 26.6734 58.9057 29.3384 62.3307Z" fill="#F0B54C"/>
<path d="M77.1615 62.648C78.3058 64.1538 79.9994 68.6712 79.9994 70.1116C79.9994 71.4864 79.2213 71.9447 78.2143 71.2245C76.2461 69.7187 73.9575 61.3386 75.5137 61.3386C75.8799 61.3386 76.6123 61.9278 77.1615 62.648Z" fill="#F0B54C"/>
<path d="M70.9824 78.9017C72.1449 80.2224 73.6244 82.3135 74.2585 83.5792C75.1567 85.5052 75.2096 85.9454 74.5755 86.4957C73.5187 87.4312 71.9864 86.7158 70.137 84.5697C68.3933 82.4786 67.1252 78.8467 67.6008 77.471C68.0763 76.1503 68.6047 76.3704 70.9824 78.9017Z" fill="#F0B54C"/>
<path d="M49.3867 77.0373C50.2851 77.4251 52.5012 81.8854 52.5012 83.3722C52.5012 83.8893 52.1418 84.3418 51.7225 84.3418C50.2851 84.3418 48.9675 82.7904 48.0691 80.0108C47.0509 76.8434 47.3503 76.1323 49.3867 77.0373Z" fill="#F0B54C"/>
</svg>
