<svg width="142" height="30" viewBox="0 0 142 30" fill="none" xmlns="http://www.w3.org/2000/svg">
<g clip-path="url(#clip0_693_2739)">
<path d="M21.8222 22.8705C20.1682 24.1407 18.1021 24.9009 15.8579 24.9162C10.4386 24.9527 5.95386 20.5672 5.87506 15.1479C5.79481 9.60383 10.2642 5.08482 15.79 5.08482C18.0079 5.08482 20.0544 5.81294 21.7054 7.04228C22.3081 7.49097 23.1456 7.44063 23.6775 6.9095L25.7634 4.82363C26.0121 4.57485 26.0063 4.16629 25.7444 3.93136C23.0895 1.54053 19.5685 0.0937813 15.7105 0.11348C7.4028 0.157255 0.789907 6.90293 0.90445 15.2099C1.01608 23.3352 7.63845 29.8883 15.79 29.8883C19.6641 29.8883 23.1931 28.4087 25.8414 25.9807C26.1026 25.7414 26.1157 25.3343 25.8648 25.084L23.7884 23.0076C23.2587 22.478 22.4161 22.4145 21.8214 22.8712L21.8222 22.8705Z" fill="#EF577C"/>
<path d="M23.5305 15.0524C23.5305 19.3562 20.0417 22.845 15.7379 22.845H15.7328C15.5876 22.845 15.4694 22.7268 15.4694 22.5816V20.7489C15.4694 20.6008 15.5905 20.4804 15.7379 20.4804C18.7357 20.4804 21.1659 18.0502 21.1659 15.0524C21.1659 12.0546 18.7357 9.62433 15.7379 9.62433C15.5898 9.62433 15.4694 9.50322 15.4694 9.35584V7.52314C15.4694 7.37796 15.5876 7.25977 15.7328 7.25977H15.7379C20.0417 7.25977 23.5305 10.7486 23.5305 15.0524Z" fill="#EF577C"/>
<path d="M16.0063 14.2475C16.6296 14.2475 17.1349 13.7422 17.1349 13.1189C17.1349 12.4956 16.6296 11.9902 16.0063 11.9902C15.3829 11.9902 14.8776 12.4956 14.8776 13.1189C14.8776 13.7422 15.3829 14.2475 16.0063 14.2475Z" fill="#EF577C"/>
<path d="M16.059 18.1167C16.6823 18.1167 17.1876 17.6114 17.1876 16.988C17.1876 16.3647 16.6823 15.8594 16.059 15.8594C15.4356 15.8594 14.9303 16.3647 14.9303 16.988C14.9303 17.6114 15.4356 18.1167 16.059 18.1167Z" fill="#EF577C"/>
<path d="M68.0005 24.2485C67.125 25.688 65.9314 26.8393 64.4204 27.7031C62.9088 28.5669 61.2898 28.9981 59.5629 28.9981C57.836 28.9981 56.1864 28.5604 54.6871 27.6849C53.1879 26.8094 52.0067 25.6158 51.1429 24.1048C50.255 22.6413 49.8114 21.0224 49.8114 19.2473C49.8114 17.4722 50.2491 15.8708 51.1246 14.3715C52.0001 12.8722 53.1937 11.6787 54.7046 10.7915C56.1915 9.92767 57.8112 9.49576 59.5622 9.49576C61.0184 9.49576 62.3908 9.80072 63.6799 10.4099C64.4088 10.7543 65.2478 10.2166 65.2478 9.4104V3.43515C65.2478 2.82596 65.7417 2.33203 66.3509 2.33203H68.18C68.7884 2.33203 69.2823 2.8245 69.2831 3.43369L69.313 19.5362C69.313 21.239 68.8752 22.8106 67.9998 24.25L68.0005 24.2485ZM62.4053 14.3175C61.5415 13.8141 60.5945 13.5617 59.5629 13.5617C58.5313 13.5617 57.6142 13.8192 56.7387 14.335C55.8632 14.8509 55.1738 15.5403 54.6696 16.4041C54.1421 17.2439 53.878 18.1916 53.878 19.2466C53.878 20.3015 54.1356 21.1953 54.6514 22.0715C55.1672 22.947 55.8567 23.6364 56.7205 24.1406C57.5602 24.6681 58.5072 24.9322 59.5629 24.9322C60.6186 24.9322 61.5123 24.6746 62.3878 24.1588C63.2633 23.643 63.9652 22.9535 64.4927 22.0897C64.9961 21.2259 65.2485 20.2789 65.2485 19.2473C65.2485 18.2157 64.991 17.2979 64.4752 16.4224C63.9593 15.5469 63.2699 14.845 62.4061 14.3175H62.4053Z" fill="#36D0ED"/>
<path d="M46.9228 20.4341C46.9228 22.0895 46.5091 23.5764 45.6818 24.8962C44.8545 26.2152 43.7331 27.2352 42.3177 27.9545C40.8783 28.6498 39.403 28.9978 37.8921 28.9978C36.3811 28.9978 34.8337 28.644 33.4665 27.9363C32.0992 27.2286 30.9954 26.2269 30.1564 24.9319C29.3166 23.6128 28.8971 22.1135 28.8971 20.4341V10.6096C28.8971 10.0142 29.3801 9.53125 29.9754 9.53125H31.849C32.4443 9.53125 32.9273 10.0142 32.9273 10.6096V20.4341C32.9273 21.8254 33.4074 22.9227 34.3668 23.7266C35.3262 24.5306 36.5015 24.9319 37.8928 24.9319C39.2841 24.9319 40.4237 24.5299 41.3831 23.7266C42.3425 22.9234 42.8226 21.8254 42.8226 20.4341V10.6096C42.8226 10.0142 43.3056 9.53125 43.9009 9.53125H45.7817C46.3742 9.53125 46.8557 10.0099 46.8601 10.6023L46.925 20.4341H46.9228Z" fill="#FBB32C"/>
<path d="M90.3714 24.2485C89.4959 25.688 88.3023 26.8393 86.7913 27.7031C85.2797 28.5669 83.6607 28.9981 81.9338 28.9981C80.2069 28.9981 78.5573 28.5604 77.058 27.6849C75.5588 26.8094 74.3776 25.6158 73.5138 24.1048C72.6259 22.6413 72.1823 21.0224 72.1823 19.2473C72.1823 17.4722 72.62 15.8708 73.4955 14.3715C74.371 12.8722 75.5646 11.6787 77.0756 10.7915C78.5624 9.92767 80.1821 9.49576 81.9331 9.49576C83.3893 9.49576 84.7617 9.80072 86.0508 10.4099C86.7797 10.7543 87.6187 10.2166 87.6187 9.4104V3.43515C87.6187 2.82596 88.1126 2.33203 88.7218 2.33203H90.5509C91.1593 2.33203 91.6533 2.8245 91.654 3.43369L91.6839 19.5362C91.6839 21.239 91.2462 22.8106 90.3707 24.25L90.3714 24.2485ZM84.7763 14.3175C83.9124 13.8141 82.9654 13.5617 81.9338 13.5617C80.9022 13.5617 79.9851 13.8192 79.1096 14.335C78.2341 14.8509 77.5447 15.5403 77.0405 16.4041C76.5131 17.2439 76.2489 18.1916 76.2489 19.2466C76.2489 20.3015 76.5065 21.1953 77.0223 22.0715C77.5381 22.947 78.2276 23.6364 79.0914 24.1406C79.9311 24.6681 80.8781 24.9322 81.9338 24.9322C82.9895 24.9322 83.8833 24.6746 84.7587 24.1588C85.6342 23.643 86.3361 22.9535 86.8636 22.0897C87.367 21.2259 87.6194 20.2789 87.6194 19.2473C87.6194 18.2157 87.3619 17.2979 86.8461 16.4224C86.3303 15.5469 85.6408 14.845 84.777 14.3175H84.7763Z" fill="#00A8B3"/>
<path d="M98.5578 28.9614H96.005C95.4082 28.9614 94.9245 28.4777 94.9245 27.8809V3.48675C94.9245 2.88996 95.4082 2.40625 96.005 2.40625H98.5578C99.1546 2.40625 99.6383 2.88996 99.6383 3.48675V27.8809C99.6383 28.4777 99.1546 28.9614 98.5578 28.9614Z" fill="#9F65A9"/>
<path d="M112.663 9.49487C114.03 9.49487 115.446 9.82464 116.909 10.4842C118.373 11.1437 119.62 12.2293 120.651 13.7403C121.779 15.4431 122.342 17.2787 122.342 19.2457C122.342 20.1051 121.657 20.8084 120.797 20.831L108.757 21.1491C108.016 21.1688 107.582 22.0122 108.016 22.6127C108.18 22.8396 108.362 23.0548 108.56 23.2576C109.136 23.8449 109.808 24.2834 110.575 24.5709C111.199 24.8109 111.871 24.9305 112.59 24.9305C113.406 24.9305 114.192 24.7686 114.947 24.4446C115.529 24.1951 116.043 23.8639 116.49 23.451C116.745 23.2146 117.117 23.154 117.442 23.2788L119.647 24.1287C120.244 24.3593 120.442 25.1137 120.025 25.5996C119.261 26.4911 118.341 27.2273 117.267 27.8087C115.803 28.6003 114.244 28.9965 112.589 28.9965C111.197 28.9965 109.776 28.6667 108.325 28.0072C106.874 27.3476 105.632 26.2496 104.601 24.7146C103.449 23.0118 102.874 21.1761 102.874 19.2092C102.874 18.0579 103.09 16.9067 103.522 15.7546C104.241 13.8833 105.44 12.3723 107.12 11.2211C108.799 10.0698 110.646 9.49414 112.661 9.49414L112.663 9.49487ZM116.396 17.2313C117.162 17.2131 117.582 16.3281 117.11 15.7247C116.976 15.5547 116.832 15.3913 116.675 15.2345C116.111 14.6705 115.446 14.2452 114.678 13.957C114.054 13.7169 113.382 13.5973 112.663 13.5973C111.488 13.5973 110.408 13.9212 109.425 14.5691C108.441 15.2169 107.733 16.1041 107.301 17.232L107.229 17.448L116.396 17.232V17.2313Z" fill="#EF577C"/>
<path d="M135.441 24.5905C135.993 24.3388 136.329 23.9368 136.449 23.3852C136.473 23.313 136.485 23.1934 136.485 23.0256C136.485 22.4499 136.161 22.0063 135.513 21.6941C135.321 21.5744 134.469 21.3344 132.958 20.974L131.734 20.6858C130.271 20.278 129.084 19.8701 128.172 19.4623C127.261 19.0545 126.54 18.527 126.013 17.8791C125.485 17.2313 125.221 16.4156 125.221 15.4321C125.221 14.2327 125.521 13.1296 126.121 12.122C126.721 11.1145 127.536 10.4309 128.568 10.0712C129.432 9.75964 130.631 9.60352 132.166 9.60352C133.701 9.60352 135.416 9.73119 137.389 9.98727C138.088 10.0777 138.522 10.7964 138.276 11.4566L137.747 12.8822C137.575 13.3462 137.113 13.6374 136.62 13.5928L132.359 13.2054C132.326 13.2025 132.292 13.2003 132.26 13.2003C130.756 13.1865 129.897 13.606 129.683 14.4603C129.659 14.58 129.648 14.712 129.648 14.8565C129.648 15.2884 130.02 15.6481 130.763 15.9355C130.979 16.0552 132.035 16.3674 133.93 16.8708C136.088 17.3983 137.636 17.9025 138.571 18.3818C140.202 19.293 141.018 20.5771 141.018 22.2318C141.018 22.6396 140.958 23.143 140.839 23.7427C140.431 25.4222 139.489 26.6873 138.014 27.5387C136.547 28.385 134.59 28.7754 132.14 28.7097C132.11 28.709 132.079 28.7068 132.049 28.7039L127.94 28.2851C127.201 28.2099 126.748 27.4366 127.046 26.7552L127.742 25.161C127.933 24.7233 128.386 24.4599 128.86 24.5095L132.834 24.9247C132.867 24.9283 132.902 24.9305 132.937 24.9312C134.062 24.9509 134.896 24.8364 135.439 24.5883L135.441 24.5905Z" fill="#FBB32C"/>
</g>
<defs>
<clipPath id="clip0_693_2739">
<rect width="140.115" height="29.7741" fill="white" transform="translate(0.902985 0.113281)"/>
</clipPath>
</defs>
</svg>
