<svg width="170" height="36" viewBox="0 0 170 36" fill="none" xmlns="http://www.w3.org/2000/svg">
<path d="M25.7355 27.516C23.7396 29.0531 21.2489 29.972 18.5419 29.9891C12.0057 30.0321 6.59605 24.7294 6.50182 18.1795C6.40545 11.4771 11.7959 6.01133 18.4605 6.01133C21.1354 6.01133 23.6046 6.89152 25.5942 8.37712C26.3223 8.92027 27.331 8.86016 27.9735 8.21611L30.4899 5.6936C30.7897 5.39304 30.7833 4.89928 30.4663 4.61375C27.2625 1.72628 23.0157 -0.0233789 18.362 0.000236052C8.3436 0.0539065 0.366143 8.20967 0.503205 18.2525C0.638126 28.0763 8.62415 36.0002 18.4584 36.0002C23.1313 36.0002 27.3867 34.2119 30.582 31.2751C30.8968 30.9853 30.9118 30.4936 30.6098 30.1909L28.1063 27.6813C27.4681 27.0416 26.4508 26.9643 25.7334 27.516H25.7355Z" fill="white"/>
<path d="M27.7932 18.0665C27.7932 23.2704 23.5849 27.4889 18.3937 27.4889H18.3873C18.2117 27.4889 18.0703 27.3472 18.0703 27.1712V24.9557C18.0703 24.7775 18.2159 24.6315 18.3937 24.6315C22.0087 24.6315 24.9406 21.6925 24.9406 18.0687C24.9406 14.4448 22.0087 11.5059 18.3937 11.5059C18.2159 11.5059 18.0703 11.3599 18.0703 11.1817V8.96617C18.0703 8.79013 18.2117 8.64844 18.3873 8.64844H18.3937C23.5849 8.64844 27.7932 12.8669 27.7932 18.0708V18.0665Z" fill="white"/>
<path d="M18.7171 17.0921C19.4693 17.0921 20.0791 16.4808 20.0791 15.7267C20.0791 14.9726 19.4693 14.3613 18.7171 14.3613C17.9648 14.3613 17.355 14.9726 17.355 15.7267C17.355 16.4808 17.9648 17.0921 18.7171 17.0921Z" fill="white"/>
<path d="M18.7834 21.7698C19.5357 21.7698 20.1455 21.1585 20.1455 20.4044C20.1455 19.6504 19.5357 19.0391 18.7834 19.0391C18.0312 19.0391 17.4214 19.6504 17.4214 20.4044C17.4214 21.1585 18.0312 21.7698 18.7834 21.7698Z" fill="white"/>
<path d="M81.4316 29.1839C80.3758 30.925 78.9367 32.3161 77.1142 33.3616C75.2917 34.405 73.3385 34.9267 71.2548 34.9267C69.171 34.9267 67.1836 34.3985 65.3739 33.338C63.5664 32.2796 62.1401 30.837 61.0993 29.01C60.0285 27.2411 59.4931 25.2831 59.4931 23.1363C59.4931 20.9895 60.0221 19.0531 61.0779 17.2412C62.1337 15.4293 63.5728 13.9844 65.3953 12.9132C67.19 11.8698 69.1431 11.346 71.2548 11.346C73.0109 11.346 74.6663 11.7153 76.2211 12.4516C77.1013 12.8681 78.1122 12.2176 78.1122 11.243V4.01677C78.1122 3.28041 78.7075 2.68359 79.4421 2.68359H81.6479C82.3825 2.68359 82.9779 3.28041 82.9779 4.01462L83.0143 23.4841C83.0143 25.5429 82.4853 27.4429 81.4295 29.1839H81.4316ZM74.6813 17.1768C73.6405 16.5671 72.4969 16.2622 71.2526 16.2622C70.0083 16.2622 68.9011 16.5735 67.8453 17.1982C66.7895 17.8208 65.9564 18.6559 65.3504 19.6993C64.7143 20.7147 64.3952 21.8611 64.3952 23.1363C64.3952 24.4115 64.7058 25.4935 65.329 26.5519C65.95 27.6103 66.7831 28.4454 67.8239 29.053C68.8369 29.6906 69.9784 30.0104 71.2526 30.0104C72.5269 30.0104 73.6041 29.6992 74.6599 29.0744C75.7157 28.4497 76.5616 27.6167 77.1998 26.5734C77.8081 25.53 78.1122 24.3836 78.1122 23.1363C78.1122 21.889 77.8016 20.7791 77.1784 19.7207C76.5574 18.6624 75.7243 17.8144 74.6835 17.1746L74.6813 17.1768Z" fill="white"/>
<path d="M35.5649 11.4424H37.8246C38.5141 11.4425 39.0744 12.0039 39.0746 12.6953V24.5742C39.0747 26.27 39.6574 27.6118 40.8286 28.5928C41.9951 29.5737 43.4253 30.0615 45.1147 30.0615C46.8042 30.0615 48.1886 29.5733 49.3569 28.5928C50.5259 27.6097 51.1117 26.268 51.1118 24.5742V12.6953C51.112 12.0038 51.6722 11.4424 52.3618 11.4424H54.6293C55.3171 11.4424 55.8752 11.9979 55.8793 12.6875L55.9584 24.5742C55.958 26.5654 55.4615 28.3544 54.4692 29.9404C53.5383 31.4282 52.2968 32.5988 50.7455 33.4541L50.4311 33.6211C48.7009 34.4593 46.9289 34.8779 45.1147 34.8779C43.2998 34.8779 41.4398 34.4523 39.7983 33.5996C38.1571 32.747 36.8307 31.542 35.8246 29.9844C34.8176 28.3982 34.3149 26.5959 34.3149 24.5742V12.6953C34.3151 12.0039 34.8754 11.4425 35.5649 11.4424Z" fill="white" stroke="white" stroke-width="0.1"/>
<path d="M108.416 29.1839C107.36 30.925 105.921 32.3161 104.098 33.3616C102.276 34.405 100.323 34.9267 98.2389 34.9267C96.1551 34.9267 94.1677 34.3985 92.3581 33.338C90.5506 32.2796 89.1243 30.837 88.0835 29.01C87.0127 27.2411 86.4773 25.2831 86.4773 23.1363C86.4773 20.9895 87.0062 19.0531 88.062 17.2412C89.1179 15.4293 90.557 13.9844 92.3795 12.9132C94.1742 11.8698 96.1273 11.346 98.2389 11.346C99.995 11.346 101.65 11.7153 103.205 12.4516C104.085 12.8681 105.096 12.2176 105.096 11.243V4.01677C105.096 3.28041 105.692 2.68359 106.426 2.68359H108.632C109.367 2.68359 109.962 3.28041 109.962 4.01462L109.998 23.4841C109.998 25.5429 109.469 27.4429 108.414 29.1839H108.416ZM101.665 17.1768C100.625 16.5671 99.481 16.2622 98.2368 16.2622C96.9925 16.2622 95.8853 16.5735 94.8295 17.1982C93.7737 17.8208 92.9406 18.6559 92.3345 19.6993C91.6985 20.7147 91.3794 21.8611 91.3794 23.1363C91.3794 24.4115 91.6899 25.4935 92.3131 26.5519C92.9342 27.6103 93.7673 28.4454 94.8081 29.053C95.8211 29.6906 96.9625 30.0104 98.2368 30.0104C99.511 30.0104 100.588 29.6992 101.644 29.0744C102.7 28.4497 103.546 27.6167 104.184 26.5734C104.792 25.53 105.096 24.3836 105.096 23.1363C105.096 21.889 104.786 20.7791 104.163 19.7207C103.542 18.6624 102.708 17.8144 101.668 17.1746L101.665 17.1768Z" fill="white"/>
<path d="M118.286 34.8834H115.207C114.487 34.8834 113.903 34.2995 113.903 33.576V4.08085C113.903 3.35952 114.485 2.77344 115.207 2.77344H118.286C119.006 2.77344 119.591 3.35737 119.591 4.08085V33.576C119.591 34.2973 119.008 34.8834 118.286 34.8834Z" fill="white"/>
<path d="M135.301 11.3457C136.95 11.3457 138.657 11.745 140.422 12.5415C142.187 13.338 143.692 14.6518 144.936 16.4787C146.296 18.5375 146.977 20.7574 146.977 23.136C146.977 24.1751 146.151 25.0252 145.114 25.0531L130.592 25.4374C129.699 25.461 129.174 26.4808 129.699 27.2064C129.898 27.4812 130.117 27.741 130.356 27.9857C131.05 28.6963 131.862 29.2266 132.787 29.5743C133.539 29.8642 134.351 30.0101 135.218 30.0101C136.201 30.0101 137.15 29.8148 138.06 29.4219C138.762 29.1214 139.381 28.7199 139.921 28.2197C140.229 27.9342 140.677 27.8612 141.069 28.0115L143.729 29.0398C144.45 29.3189 144.688 30.2313 144.185 30.8173C143.264 31.8951 142.155 32.786 140.859 33.488C139.094 34.4455 137.214 34.9242 135.218 34.9242C133.539 34.9242 131.826 34.5249 130.076 33.7284C128.326 32.9298 126.827 31.6031 125.585 29.7482C124.197 27.6894 123.501 25.4696 123.501 23.0909C123.501 21.6998 123.762 20.3065 124.283 18.9154C125.15 16.6526 126.598 14.8257 128.624 13.4346C130.65 12.0413 132.877 11.3457 135.308 11.3457H135.301ZM139.805 20.6994C140.73 20.6779 141.236 19.6067 140.666 18.8767C140.506 18.6706 140.33 18.4731 140.141 18.2842C139.463 17.6037 138.659 17.0884 137.732 16.7407C136.98 16.4508 136.169 16.3049 135.301 16.3049C133.884 16.3049 132.582 16.6956 131.395 17.4792C130.209 18.2628 129.354 19.3362 128.834 20.6994L128.746 20.9613L139.803 20.6994H139.805Z" fill="white"/>
<path d="M158.823 11.5264C160.67 11.5264 162.737 11.6813 165.117 11.9902C165.928 12.0956 166.431 12.9316 166.147 13.7002L165.509 15.4248C165.309 15.9637 164.773 16.3024 164.201 16.251L159.06 15.7822H159.059C159.019 15.7779 158.978 15.7764 158.936 15.7764C158.026 15.7678 157.305 15.8906 156.777 16.1494C156.247 16.4094 155.912 16.8061 155.78 17.3379V17.3398C155.749 17.49 155.736 17.6528 155.736 17.8291C155.736 18.3156 156.101 18.7191 156.795 19.0459L157.113 19.1807C157.184 19.2193 157.315 19.2707 157.5 19.334C157.693 19.3996 157.949 19.48 158.267 19.5742C158.904 19.7628 159.794 20.0087 160.936 20.3135L160.937 20.3145C163.215 20.8722 164.925 21.4073 166.069 21.9189L166.525 22.1367C168.478 23.2305 169.449 24.7675 169.449 26.7471C169.449 27.2363 169.376 27.8406 169.233 28.5645C168.743 30.581 167.617 32.097 165.85 33.1201C164.092 34.1379 161.742 34.6076 158.792 34.5283H158.791C158.756 34.5283 158.725 34.5249 158.685 34.5225H158.686L153.731 34.0156C152.874 33.9289 152.348 33.0279 152.694 32.2344L153.534 30.3066C153.756 29.7986 154.282 29.4912 154.832 29.5488L159.625 30.0508C159.667 30.0552 159.711 30.0574 159.751 30.0596H159.753C161.113 30.0832 162.127 29.9468 162.794 29.6416C163.472 29.3315 163.888 28.8352 164.036 28.1533C164.066 28.0576 164.081 27.907 164.081 27.7021C164.081 27.3445 163.98 27.0263 163.779 26.749C163.578 26.4723 163.276 26.2383 162.88 26.0469C162.816 26.0077 162.706 25.9611 162.553 25.9082C162.395 25.8533 162.186 25.7894 161.929 25.7168C161.415 25.5716 160.701 25.3907 159.79 25.1738L158.313 24.8262C156.551 24.333 155.122 23.8417 154.027 23.3496C152.934 22.8584 152.071 22.2256 151.441 21.4492C150.813 20.676 150.497 19.7024 150.497 18.5225C150.497 17.0821 150.857 15.7552 151.576 14.5459C152.294 13.3381 153.268 12.5183 154.5 12.0889V12.0879C155.533 11.7129 156.975 11.5264 158.823 11.5264Z" fill="white" stroke="white" stroke-width="0.1"/>
</svg>
