<svg width="389" height="164" viewBox="0 0 389 164" fill="none" xmlns="http://www.w3.org/2000/svg">
<path d="M222.204 -2.979C221.836 -1.88348 222.082 1.64653 222.94 5.05482C225.025 14.1842 224.78 14.9145 218.77 18.2011C209.449 23.1918 210.676 26.2349 222.45 27.6956L229.563 28.5477L232.384 37.5553C233.856 42.546 235.818 47.0498 236.8 47.5367C239.252 49.1191 243.668 44.0067 246.611 36.2163L249.187 29.0346L254.093 29.3997C257.65 29.6432 259.244 29.1563 260.225 27.6956C261.452 25.8697 260.716 24.6525 256.423 20.2704C250.904 14.6711 250.536 13.2104 252.744 5.78517C254.706 -0.909679 252.866 -2.4921 246.979 1.03791C244.526 2.37688 241.828 3.59413 241.092 3.59413C240.234 3.59413 236.677 1.64653 233.243 -0.666229C226.252 -5.29176 223.431 -5.90039 222.204 -2.979ZM232.997 5.90689L235.818 8.09793L233.12 9.55863C230.667 10.7759 230.299 10.6542 229.195 7.85449C228.459 6.02862 227.969 4.4462 227.969 4.08103C227.969 2.86378 230.299 3.71585 232.997 5.90689ZM243.913 18.8097C243.913 22.9483 243.79 23.0701 239.13 23.0701C235.941 23.0701 234.101 22.4614 233.611 21.1225C232.262 17.7142 232.752 16.3752 236.186 14.3059C240.847 11.5062 243.913 13.3321 243.913 18.8097ZM226.742 21.8528C226.742 22.4614 226.252 23.0701 225.516 23.0701C224.903 23.0701 224.289 22.4614 224.289 21.8528C224.289 21.1225 224.903 20.6356 225.516 20.6356C226.252 20.6356 226.742 21.1225 226.742 21.8528ZM241.46 32.9297C239.498 39.3811 238.271 39.3811 237.045 33.0515C236.309 29.5215 236.554 29.1563 239.375 29.1563C242.319 29.1563 242.441 29.3997 241.46 32.9297Z" fill="#AE7EBC"/>
<path d="M327.56 -0.666927C325.229 0.30687 323.635 1.76756 324.003 2.61964C324.984 5.54103 336.881 2.49791 338.107 -1.0321C338.721 -3.10142 332.711 -2.85797 327.56 -0.666927Z" fill="#AE7EBC"/>
<path d="M299.964 4.3233C295.549 5.66227 294.2 6.63607 294.445 8.21849C294.936 10.5313 296.285 10.4095 306.219 7.73159C310.021 6.51434 312.597 5.17537 312.597 4.07985C312.597 1.88881 307.691 2.01054 299.964 4.3233Z" fill="#AE7EBC"/>
<path d="M266.728 11.5049C261.577 13.3308 259.247 15.6435 261.086 17.4694C262.436 18.8084 279.852 13.2091 280.465 11.1397C281.078 9.07042 272.861 9.31387 266.728 11.5049Z" fill="#AE7EBC"/>
<path d="M262.926 30.2511C261.944 31.9552 269.058 36.2156 274.332 37.1894C284.389 39.137 278.011 32.077 267.586 29.8859C265.378 29.399 263.416 29.5207 262.926 30.2511Z" fill="#AE7EBC"/>
<path d="M5.97764 32.1977C5.97764 33.1715 7.08147 36.7015 8.4306 40.1098C9.77972 43.5181 10.8836 46.8046 10.8836 47.4133C10.8836 48.0219 8.4306 49.9695 5.3644 51.7953C-2.6077 56.4209 -1.74916 58.8554 8.30795 59.5857L16.1574 60.1943L19.3462 68.7151C21.7992 75.0447 23.271 77.3575 25.2333 77.6009C28.1769 78.0878 29.2807 75.1665 29.2807 66.6457V60.9247L38.1113 60.5595C49.6402 60.0726 50.3761 58.0033 40.9322 52.404C37.1302 50.0912 33.8187 47.7784 33.4507 47.1698C33.0828 46.5612 34.1866 43.7615 35.9037 40.8401C40.5643 32.8063 37.866 31.8325 28.0542 37.797L21.9218 41.4488L16.4027 36.945C13.3365 34.3887 10.8836 31.8325 10.8836 31.3456C10.8836 30.8587 9.77972 30.3718 8.4306 30.3718C7.08147 30.3718 5.97764 31.2239 5.97764 32.1977ZM24.6201 52.2822C24.2521 56.2992 23.3936 56.7861 21.0633 54.4733C18.733 52.0388 19.8368 48.2653 22.7804 48.874C24.2521 49.2391 24.8654 50.3347 24.6201 52.2822ZM33.5734 54.7167C33.9413 55.3254 33.696 55.934 33.0828 55.934C32.3469 55.934 31.7337 55.3254 31.7337 54.7167C31.7337 53.9864 31.979 53.4995 32.2242 53.4995C32.5922 53.4995 33.2054 53.9864 33.5734 54.7167Z" fill="#AE7EBC"/>
<path d="M192.157 31.7122C187.987 34.0249 189.95 35.2422 197.922 35.2422C202.337 35.2422 205.894 34.7553 205.894 34.2684C205.894 30.7384 196.695 29.0342 192.157 31.7122Z" fill="#AE7EBC"/>
<path d="M165.42 33.9038C162.721 34.3907 161.004 35.3645 160.759 36.7035C160.391 38.5294 161.25 38.8945 166.278 38.8945C169.467 38.8945 173.392 38.5294 174.986 38.1642C178.298 37.1904 178.665 34.0255 175.354 34.0255C174.005 34.0255 172.288 33.7821 171.307 33.5387C170.448 33.2952 167.75 33.4169 165.42 33.9038Z" fill="#AE7EBC"/>
<path d="M339.334 37.7983L335.287 42.5455L328.173 41.3283C318.975 39.6241 312.106 40.111 311.616 42.5455C311.493 43.641 313.946 47.4145 317.38 51.0662L323.39 57.7611L319.833 62.1432C317.871 64.5777 316.276 67.2556 316.276 67.986C316.276 69.6901 321.06 69.6901 328.051 67.986L333.692 66.5253L340.193 72.9767C349.146 81.7408 351.231 81.1322 351.354 69.9335L351.476 61.4128L356.014 59.7087C362.269 57.3959 361.656 53.8659 354.542 51.188C348.042 48.6318 346.938 47.1711 346.938 39.9893C346.938 32.1989 344.485 31.5903 339.334 37.7983ZM329.768 47.4145C331.362 48.3883 331.362 48.7535 329.4 50.7011C327.437 52.7704 327.192 52.6487 324.003 49.4838L320.569 46.1973H324.248C326.333 46.1973 328.786 46.8059 329.768 47.4145ZM341.787 51.3097C342.646 52.1618 343.259 53.9876 343.259 55.5701C343.259 59.1001 338.23 61.4128 334.551 59.587C331.485 57.8828 331.607 56.1787 334.919 52.6487C337.862 49.4838 339.579 49.1187 341.787 51.3097ZM345.712 67.1339C345.712 69.6901 345.589 69.6901 343.259 67.4991C341.419 65.7949 341.174 64.9428 342.278 64.3342C344.363 62.9952 345.712 64.0908 345.712 67.1339Z" fill="#AE7EBC"/>
<path d="M124.579 36.0952C123.352 36.4604 122.494 37.5559 122.739 38.6514C123.107 40.3556 124.334 40.599 129.24 40.3556C136.108 39.8687 138.806 38.2863 135.985 36.4604C134.145 35.2432 128.504 35.1214 124.579 36.0952Z" fill="#AE7EBC"/>
<path d="M87.7824 38.53C87.2918 38.8951 86.9238 39.9907 86.9238 40.9645C86.9238 42.06 89.0088 42.5469 94.7733 42.5469C102.623 42.5469 106.057 40.8427 102.745 38.7734C100.783 37.5562 88.8862 37.3127 87.7824 38.53Z" fill="#AE7EBC"/>
<path d="M290.521 41.6925C290.521 44.2487 302.663 50.4567 304.258 48.8743C306.097 47.0484 303.399 43.8836 298.248 41.6925C293.219 39.6232 290.521 39.6232 290.521 41.6925Z" fill="#AE7EBC"/>
<path d="M58.718 42.4228C56.0197 42.9097 54.4253 43.8835 54.4253 44.979C54.4253 48.8742 68.7751 47.2917 69.511 43.3966C70.0016 41.2055 67.1807 40.9621 58.718 42.4228Z" fill="#AE7EBC"/>
<path d="M53.8096 69.3252C53.8096 71.151 59.0834 75.5331 61.0458 75.168C64.2346 74.5593 63.8667 71.8814 60.0646 70.0555C55.8946 67.8645 53.8096 67.621 53.8096 69.3252Z" fill="#AE7EBC"/>
<path d="M302.541 69.8119C297.512 73.5854 302.173 75.8982 307.447 72.2464C308.919 71.2726 310.145 69.9337 310.145 69.2033C310.145 67.6209 304.994 67.9861 302.541 69.8119Z" fill="#AE7EBC"/>
<path d="M285.615 77.602C281.077 79.793 279.115 83.9316 282.549 83.9316C285.86 83.9316 294.2 79.1844 294.2 77.2368C294.2 74.8023 290.889 74.924 285.615 77.602Z" fill="#AE7EBC"/>
<path d="M183.449 87.8277C178.911 92.9401 177.93 95.3746 180.015 96.5919C181.119 97.3222 192.402 85.7584 192.402 83.8108C192.402 81.0111 187.497 83.2022 183.449 87.8277Z" fill="#AE7EBC"/>
<path d="M90.604 100.365C90.604 102.8 96.7364 108.156 99.5573 108.277C102.869 108.277 102.01 105.234 97.8402 101.704C93.6702 98.1742 90.604 97.5656 90.604 100.365Z" fill="#AE7EBC"/>
<path d="M224.658 101.704C217.913 104.991 216.073 108.277 220.979 108.277C224.536 108.277 236.923 102.191 237.536 100C238.272 97.5656 231.526 98.4177 224.658 101.704Z" fill="#AE7EBC"/>
<path d="M167.015 107.546C162.109 111.685 158.307 118.745 160.147 120.57C161.986 122.396 163.09 121.544 168.487 113.754C171.798 109.128 172.779 106.572 171.921 105.72C171.062 104.868 169.591 105.477 167.015 107.546Z" fill="#AE7EBC"/>
<path d="M197.921 111.441C188.845 115.336 186.147 117.527 189.213 118.744C193.015 120.205 210.554 111.928 208.959 109.493C207.855 107.668 206.138 108.033 197.921 111.441Z" fill="#AE7EBC"/>
<path d="M133.041 119.475L130.098 123.37L123.72 121.909C120.286 121.057 116.116 120.449 114.399 120.449C109.861 120.449 110.597 125.196 115.748 130.186L120.04 134.325L115.012 139.438C111.823 142.602 110.106 145.402 110.474 146.741C110.842 148.81 111.946 149.054 121.39 148.689L131.692 148.323L134.022 152.219C142.73 166.947 150.457 167.069 146.532 152.34L144.815 146.011L148.004 145.28C157.448 143.211 158.674 142.724 158.674 141.02C158.674 140.046 155.118 137.49 150.825 135.421C141.749 130.917 140.891 129.943 140.891 123.857C140.891 114.727 138.07 113.145 133.041 119.475ZM124.946 128.969C124.946 129.578 124.701 130.186 124.456 130.186C124.088 130.186 123.475 129.578 123.107 128.969C122.739 128.239 122.984 127.752 123.597 127.752C124.333 127.752 124.946 128.239 124.946 128.969ZM134.513 132.864C135.371 133.716 135.985 136.273 135.985 138.585V142.968L132.06 139.072C128.748 135.786 128.503 134.934 129.852 133.351C131.692 131.039 132.551 130.917 134.513 132.864ZM125.928 142.115C126.173 142.968 125.069 143.576 123.107 143.576C120.163 143.576 119.918 143.333 121.267 141.75C122.984 139.681 125.069 139.803 125.928 142.115Z" fill="#AE7EBC"/>
<path d="M164.438 122.641C160.268 124.71 159.409 128.727 163.334 127.996C167.504 127.266 176.457 123.006 176.457 121.667C176.457 119.841 168.976 120.328 164.438 122.641Z" fill="#AE7EBC"/>
</svg>
