<svg width="45" height="44" viewBox="0 0 45 44" fill="none" xmlns="http://www.w3.org/2000/svg">
<g clip-path="url(#clip0_391_1117)">
<path d="M9.66602 9.16667C9.66602 10.1391 10.0523 11.0718 10.74 11.7594C11.4276 12.447 12.3602 12.8333 13.3327 12.8333C14.3051 12.8333 15.2378 12.447 15.9254 11.7594C16.613 11.0718 16.9993 10.1391 16.9993 9.16667C16.9993 8.19421 16.613 7.26158 15.9254 6.57394C15.2378 5.88631 14.3051 5.5 13.3327 5.5C12.3602 5.5 11.4276 5.88631 10.74 6.57394C10.0523 7.26158 9.66602 8.19421 9.66602 9.16667Z" stroke="white" stroke-width="3.66667" stroke-linecap="round" stroke-linejoin="round"/>
<path d="M9.66732 40.3327V31.166L7.83398 29.3327V21.9993C7.83398 21.5131 8.02714 21.0468 8.37096 20.703C8.71477 20.3592 9.18109 20.166 9.66732 20.166H17.0007C17.4869 20.166 17.9532 20.3592 18.297 20.703C18.6408 21.0468 18.834 21.5131 18.834 21.9993V29.3327L17.0007 31.166V40.3327" stroke="white" stroke-width="3.66667" stroke-linecap="round" stroke-linejoin="round"/>
<path d="M28 9.16667C28 10.1391 28.3863 11.0718 29.0739 11.7594C29.7616 12.447 30.6942 12.8333 31.6667 12.8333C32.6391 12.8333 33.5718 12.447 34.2594 11.7594C34.947 11.0718 35.3333 10.1391 35.3333 9.16667C35.3333 8.19421 34.947 7.26158 34.2594 6.57394C33.5718 5.88631 32.6391 5.5 31.6667 5.5C30.6942 5.5 29.7616 5.88631 29.0739 6.57394C28.3863 7.26158 28 8.19421 28 9.16667Z" stroke="white" stroke-width="3.66667" stroke-linecap="round" stroke-linejoin="round"/>
<path d="M28.0007 40.3327V32.9993H24.334L28.0007 21.9993C28.0007 21.5131 28.1938 21.0468 28.5376 20.703C28.8814 20.3592 29.3478 20.166 29.834 20.166H33.5007C33.9869 20.166 34.4532 20.3592 34.797 20.703C35.1408 21.0468 35.334 21.5131 35.334 21.9993L39.0007 32.9993H35.334V40.3327" stroke="white" stroke-width="3.66667" stroke-linecap="round" stroke-linejoin="round"/>
</g>
<defs>
<clipPath id="clip0_391_1117">
<rect width="44" height="44" fill="white" transform="translate(0.5)"/>
</clipPath>
</defs>
</svg>
