<svg width="45" height="44" viewBox="0 0 45 44" fill="none" xmlns="http://www.w3.org/2000/svg">
<g clip-path="url(#clip0_415_343)">
<path d="M25.784 20.8819C25.6009 20.3106 25.2805 19.7929 24.8508 19.3743C24.4211 18.9557 23.8953 18.6489 23.3194 18.4808C22.7435 18.3127 22.1352 18.2886 21.5477 18.4103C20.9603 18.5321 20.4118 18.7962 19.9502 19.1794C19.4886 19.5626 19.128 20.0532 18.9002 20.6081C18.6724 21.1631 18.5842 21.7655 18.6434 22.3625C18.7026 22.9594 18.9073 23.5328 19.2397 24.0322C19.5721 24.5316 20.022 24.9418 20.5498 25.2269" stroke="white" stroke-width="3.5" stroke-linecap="round" stroke-linejoin="round"/>
<path d="M18.6102 32.5948C13.6198 31.4563 9.34634 27.9253 5.7915 22C10.1915 14.6667 15.6915 11 22.2915 11C28.4002 11 33.5665 14.1423 37.7905 20.4233" stroke="white" stroke-width="3.5" stroke-linecap="round" stroke-linejoin="round"/>
<path d="M33.2916 40.3326L39.4332 34.312C39.8099 33.9465 40.1094 33.5093 40.3143 33.0261C40.5192 32.5429 40.6252 32.0236 40.626 31.4988C40.6269 30.974 40.5226 30.4544 40.3193 29.9705C40.116 29.4867 39.8178 29.0485 39.4424 28.6818C38.6763 27.9326 37.6479 27.5122 36.5764 27.5101C35.5048 27.5081 34.4748 27.9245 33.7059 28.6708L33.2952 29.0741L32.8864 28.6708C32.1204 27.9221 31.0924 27.5021 30.0213 27.5C28.9502 27.498 27.9206 27.9141 27.1517 28.6598C26.775 29.0252 26.4752 29.4623 26.2702 29.9454C26.0652 30.4285 25.959 30.9478 25.958 31.4726C25.957 31.9974 26.0611 32.5171 26.2643 33.001C26.4674 33.4849 26.7654 33.9232 27.1407 34.29L33.2916 40.3326Z" stroke="white" stroke-width="3.5" stroke-linecap="round" stroke-linejoin="round"/>
</g>
<defs>
<clipPath id="clip0_415_343">
<rect width="44" height="44" fill="white" transform="translate(0.291504)"/>
</clipPath>
</defs>
</svg>
