<svg width="128" height="101" viewBox="0 0 128 101" fill="none" xmlns="http://www.w3.org/2000/svg">
<path d="M158.045 -29.9897C160.525 -28.5943 161.3 -26.5013 160.603 -22.7805C159.208 -15.2612 151.146 -6.96681 127.038 11.8701C117.27 19.5443 109.363 25.9783 109.518 26.1334C109.596 26.2884 117.658 21.8699 127.425 16.2886C164.246 -4.64127 180.835 -11.0753 189.129 -7.58695C200.757 -2.78084 185.409 14.5057 157.502 28.0713C148.743 32.3348 126.727 41.2494 110.216 47.2183C105.1 49.0787 101.534 50.7066 102.232 50.8616C102.929 51.0167 107.348 50.5515 112.077 49.9314C126.96 47.8384 134.867 48.6911 140.061 53.0321C144.867 57.1406 142.154 62.1017 133.316 65.5125C124.479 68.9233 119.751 69.776 107.503 70.1636C96.728 70.5512 75.333 69.4659 69.4417 68.3032C67.8138 67.9931 67.1161 68.2256 66.7285 69.2334C66.3409 70.1636 67.4262 71.7915 70.4494 74.8922C78.5113 83.2641 79.5965 85.6672 76.1857 87.8377C73.9377 89.3105 68.6665 88.6129 54.8683 84.9695C50.0621 83.7292 45.3336 82.8765 44.4033 83.1091C43.5506 83.3417 38.8996 87.2176 34.0934 91.6361C25.3339 99.853 22.3882 101.636 20.2952 99.853C18.6673 98.5352 18.8224 94.6593 20.8379 84.9695C22.9308 75.0472 23.1634 75.5123 14.0938 71.869C1.84595 67.0629 -0.867188 65.1249 0.218063 62.2568C0.915726 60.5514 4.55907 59.6987 16.4193 58.3809C22.3107 57.7607 27.4269 56.908 27.737 56.5979C28.047 56.2879 29.5974 51.5593 31.2253 45.978C34.6361 34.5828 36.4965 31.2496 39.2871 31.2496C40.9925 31.2496 41.8452 32.4898 45.9537 40.3967C48.5118 45.4354 51.1474 49.9314 51.7675 50.319C53.3954 51.3267 56.1861 51.1717 56.8837 49.9314C58.2015 47.6059 77.7361 25.8233 87.8909 15.2809C107.813 -5.33894 123.007 -17.8193 137.037 -25.2611C147.425 -30.7648 153.859 -32.2377 158.045 -29.9897ZM140.293 -21.8503C121.921 -12.4706 106.185 1.48265 67.6587 42.4122C64.2479 46.0555 61.8449 49.0787 62.31 49.2337C62.6976 49.3888 66.0309 48.8461 69.5967 48.071L76.1082 46.5981L90.0614 35.5906C97.7357 29.5442 111.456 18.7692 120.526 11.6375C129.596 4.58337 139.673 -3.40099 142.851 -6.11411C151.378 -13.4783 158.122 -23.7107 155.797 -25.9587C155.564 -26.2688 154.014 -26.5014 152.386 -26.5014C150.293 -26.5014 146.727 -25.106 140.293 -21.8503ZM179.595 -3.16843C174.246 -2.00565 162.308 2.72294 152.851 7.45154C145.564 11.0174 82.6972 47.0632 80.9143 48.6911C79.9841 49.5438 78.8988 54.8926 79.5965 54.8926C81.1469 54.8926 145.952 28.769 153.626 25.0481C169.672 17.2963 181.92 8.61431 186.494 1.63769C190.06 -3.71105 188.122 -5.10638 179.595 -3.16843ZM34.6361 48.3035C32.9307 53.4197 30.9927 58.3809 30.3726 59.3111C28.9772 61.4041 25.4889 62.3343 16.5744 63.0319C12.8535 63.342 9.83029 63.8071 9.83029 64.1172C9.83029 64.4273 12.6985 66.0551 16.1868 67.683C24.3262 71.6364 26.8843 73.8069 26.8843 76.5976C26.8843 77.8379 26.0316 82.3339 25.0238 86.5974C24.0161 90.9384 23.4735 94.5818 23.7835 94.8143C24.0936 94.9694 28.2021 91.481 32.9307 87.0625C37.6593 82.644 42.4654 78.7681 43.5506 78.458C44.7909 78.1479 50.4497 79.2332 58.7442 81.2487C65.9533 83.0316 72.0773 84.3494 72.3873 84.1168C72.6199 83.8068 70.7595 81.4812 68.2014 78.7681C63.0077 73.3418 60.9922 70.5512 60.9922 69.0008C60.9922 68.4582 63.9379 64.8924 67.5812 61.0165C73.9377 54.3499 75.7981 51.1717 72.7749 52.1019C67.8138 53.5747 54.7132 55.7452 52.5427 55.3577C48.8219 54.7375 47.349 53.1096 43.008 44.5051C40.2949 39.0014 38.9771 37.0634 38.512 37.9161C38.1244 38.5363 36.419 43.1873 34.6361 48.3035ZM116.418 53.3422C106.34 54.505 96.883 56.1328 85.0228 58.9235C75.1005 61.249 71.0695 62.9544 72.3873 64.2722C73.3951 65.2024 104.17 66.7528 110.991 66.1327C120.759 65.3575 133.239 62.0242 136.727 59.3111C138.743 57.7607 137.813 55.8228 134.402 54.5825C128.278 52.412 126.34 52.2569 116.418 53.3422Z" fill="#FFCE76"/>
</svg>
