<svg width="1412" height="300" viewBox="0 0 1412 300" fill="none" xmlns="http://www.w3.org/2000/svg">
<path d="M210.779 229.299C194.114 242.097 173.296 249.757 150.684 249.911C96.0795 250.279 50.892 206.091 50.0981 151.487C49.2895 95.6256 94.3225 50.0927 150 50.0927C172.348 50.0927 192.967 57.4291 209.603 69.8158C215.675 74.3367 224.114 73.8295 229.473 68.4779L250.49 47.461C252.997 44.9542 252.938 40.8376 250.299 38.4705C223.548 14.3808 188.072 -0.19648 149.199 0.00200122C65.4914 0.44307 -1.13936 68.4117 0.0147694 152.112C1.13949 233.981 67.8658 300.009 150 300.009C189.035 300.009 224.592 285.101 251.277 260.637C253.908 258.225 254.041 254.124 251.512 251.602L230.591 230.681C225.254 225.344 216.763 224.704 210.772 229.306L210.779 229.299Z" fill="#EF577C"/>
<path d="M227.992 150.525C227.992 193.89 192.839 229.043 149.475 229.043H149.423C147.96 229.043 146.769 227.852 146.769 226.389V207.923C146.769 206.431 147.99 205.218 149.475 205.218C179.68 205.218 204.167 180.731 204.167 150.525C204.167 120.319 179.68 95.8329 149.475 95.8329C147.982 95.8329 146.769 94.6126 146.769 93.1276V74.6616C146.769 73.1987 147.96 72.0078 149.423 72.0078H149.475C192.839 72.0078 227.992 107.161 227.992 150.525Z" fill="#EF577C"/>
<path d="M152.179 142.416C158.459 142.416 163.551 137.325 163.551 131.044C163.551 124.763 158.459 119.672 152.179 119.672C145.898 119.672 140.807 124.763 140.807 131.044C140.807 137.325 145.898 142.416 152.179 142.416Z" fill="#EF577C"/>
<path d="M152.71 181.401C158.991 181.401 164.082 176.309 164.082 170.028C164.082 163.748 158.991 158.656 152.71 158.656C146.429 158.656 141.338 163.748 141.338 170.028C141.338 176.309 146.429 181.401 152.71 181.401Z" fill="#EF577C"/>
<path d="M676.067 243.184C667.245 257.688 655.219 269.288 639.995 277.991C624.763 286.695 608.451 291.04 591.051 291.04C573.65 291.04 557.03 286.629 541.923 277.808C526.816 268.986 514.915 256.96 506.211 241.736C497.265 226.989 492.795 210.677 492.795 192.792C492.795 174.906 497.206 158.771 506.027 143.664C514.849 128.557 526.875 116.531 542.099 107.592C557.081 98.8882 573.401 94.5363 591.043 94.5363C605.716 94.5363 619.544 97.6091 632.533 103.747C639.877 107.217 648.331 101.799 648.331 93.6762V33.4704C648.331 27.3322 653.307 22.3555 659.446 22.3555H677.875C684.006 22.3555 688.983 27.3175 688.99 33.4557L689.291 195.703C689.291 212.86 684.881 228.695 676.059 243.198L676.067 243.184ZM619.691 143.12C610.987 138.048 601.445 135.504 591.051 135.504C580.656 135.504 571.416 138.099 562.594 143.296C553.773 148.494 546.826 155.441 541.747 164.144C536.432 172.605 533.771 182.155 533.771 192.784C533.771 203.414 536.366 212.419 541.563 221.248C546.76 230.069 553.707 237.016 562.411 242.096C570.872 247.411 580.414 250.072 591.051 250.072C601.688 250.072 610.693 247.477 619.514 242.28C628.336 237.082 635.407 230.135 640.722 221.432C645.795 212.728 648.338 203.186 648.338 192.792C648.338 182.397 645.743 173.149 640.546 164.328C635.349 155.507 628.402 148.435 619.698 143.12H619.691Z" fill="#EF577C"/>
<path d="M463.69 204.75C463.69 221.43 459.522 236.411 451.186 249.71C442.85 263 431.551 273.277 417.29 280.526C402.786 287.531 387.922 291.038 372.698 291.038C357.474 291.038 341.882 287.472 328.106 280.342C314.33 273.211 303.208 263.118 294.754 250.07C286.293 236.779 282.066 221.672 282.066 204.75V105.76C282.066 99.761 286.932 94.8945 292.931 94.8945H311.808C317.807 94.8945 322.673 99.761 322.673 105.76V204.75C322.673 218.769 327.51 229.825 337.177 237.926C346.844 246.027 358.687 250.07 372.705 250.07C386.724 250.07 398.206 246.019 407.873 237.926C417.54 229.832 422.377 218.769 422.377 204.75V105.76C422.377 99.761 427.243 94.8945 433.242 94.8945H452.193C458.162 94.8945 463.014 99.7169 463.058 105.686L463.712 204.75H463.69Z" fill="#EF577C"/>
<path d="M901.473 243.184C892.652 257.688 880.625 269.288 865.401 277.991C850.169 286.695 833.857 291.04 816.457 291.04C799.057 291.04 782.436 286.629 767.329 277.808C752.223 268.986 740.321 256.96 731.617 241.736C722.671 226.989 718.202 210.677 718.202 192.792C718.202 174.906 722.612 158.771 731.434 143.664C740.255 128.557 752.282 116.531 767.506 107.592C782.487 98.8882 798.807 94.5363 816.45 94.5363C831.123 94.5363 844.95 97.6091 857.939 103.747C865.283 107.217 873.737 101.799 873.737 93.6762V33.4704C873.737 27.3322 878.714 22.3555 884.852 22.3555H903.281C909.412 22.3555 914.389 27.3175 914.396 33.4557L914.698 195.703C914.698 212.86 910.287 228.695 901.466 243.198L901.473 243.184ZM845.097 143.12C836.393 138.048 826.852 135.504 816.457 135.504C806.063 135.504 796.822 138.099 788.001 143.296C779.179 148.494 772.233 155.441 767.153 164.144C761.838 172.605 759.177 182.155 759.177 192.784C759.177 203.414 761.772 212.419 766.969 221.248C772.166 230.069 779.113 237.016 787.817 242.096C796.278 247.411 805.82 250.072 816.457 250.072C827.094 250.072 836.099 247.477 844.921 242.28C853.742 237.082 860.814 230.135 866.129 221.432C871.201 212.728 873.744 203.186 873.744 192.792C873.744 182.397 871.149 173.149 865.952 164.328C860.755 155.507 853.808 148.435 845.104 143.12H845.097Z" fill="#EF577C"/>
<path d="M983.958 290.67H958.236C952.223 290.67 947.349 285.796 947.349 279.783V33.9906C947.349 27.9773 952.223 23.1035 958.236 23.1035H983.958C989.971 23.1035 994.845 27.9773 994.845 33.9906V279.783C994.845 285.796 989.971 290.67 983.958 290.67Z" fill="#EF577C"/>
<path d="M1126.08 94.5269C1139.86 94.5269 1154.12 97.8496 1168.87 104.495C1183.61 111.14 1196.18 122.079 1206.57 137.303C1217.93 154.461 1223.61 172.956 1223.61 192.775C1223.61 201.434 1216.7 208.521 1208.04 208.749L1086.72 211.954C1079.26 212.152 1074.88 220.65 1079.26 226.7C1080.91 228.987 1082.74 231.155 1084.74 233.199C1090.54 239.116 1097.31 243.534 1105.04 246.431C1111.33 248.849 1118.1 250.055 1125.35 250.055C1133.57 250.055 1141.48 248.423 1149.09 245.159C1154.96 242.645 1160.14 239.308 1164.64 235.147C1167.21 232.765 1170.96 232.155 1174.23 233.412L1196.45 241.976C1202.47 244.299 1204.46 251.9 1200.25 256.796C1192.56 265.779 1183.3 273.196 1172.47 279.055C1157.72 287.031 1142.01 291.023 1125.33 291.023C1111.31 291.023 1096.99 287.7 1082.37 281.055C1067.75 274.409 1055.24 263.346 1044.84 247.879C1033.24 230.721 1027.44 212.226 1027.44 192.407C1027.44 180.807 1029.62 169.207 1033.97 157.6C1041.22 138.744 1053.31 123.52 1070.23 111.92C1087.15 100.32 1105.76 94.5195 1126.06 94.5195L1126.08 94.5269ZM1163.7 172.478C1171.42 172.295 1175.64 163.378 1170.89 157.298C1169.54 155.585 1168.09 153.939 1166.51 152.358C1160.82 146.676 1154.12 142.39 1146.39 139.486C1140.1 137.068 1133.33 135.862 1126.08 135.862C1114.24 135.862 1103.36 139.126 1093.45 145.654C1083.54 152.182 1076.41 161.121 1072.06 172.486L1071.33 174.662L1163.7 172.486V172.478Z" fill="#EF577C"/>
<path d="M1355.59 246.63C1361.15 244.094 1364.54 240.044 1365.74 234.486C1365.99 233.758 1366.1 232.553 1366.1 230.862C1366.1 225.062 1362.84 220.592 1356.31 217.446C1354.38 216.241 1345.8 213.822 1330.57 210.191L1318.24 207.287C1303.49 203.178 1291.53 199.068 1282.35 194.959C1273.16 190.85 1265.91 185.535 1260.59 179.007C1255.28 172.479 1252.62 164.261 1252.62 154.351C1252.62 142.266 1255.64 131.151 1261.68 120.999C1267.72 110.847 1275.94 103.959 1286.34 100.335C1295.04 97.1962 1307.13 95.623 1322.59 95.623C1338.06 95.623 1355.33 96.9095 1375.22 99.4897C1382.26 100.401 1386.64 107.642 1384.16 114.295L1378.83 128.659C1377.09 133.334 1372.44 136.267 1367.47 135.819L1324.53 131.916C1324.2 131.886 1323.86 131.864 1323.54 131.864C1308.38 131.724 1299.73 135.951 1297.58 144.56C1297.33 145.765 1297.22 147.096 1297.22 148.551C1297.22 152.903 1300.97 156.527 1308.46 159.424C1310.63 160.629 1321.27 163.775 1340.36 168.848C1362.11 174.163 1377.7 179.242 1387.13 184.072C1403.57 193.254 1411.78 206.192 1411.78 222.864C1411.78 226.973 1411.18 232.045 1409.98 238.088C1405.87 255.01 1396.38 267.757 1381.51 276.336C1366.74 284.863 1347.01 288.796 1322.33 288.135C1322.03 288.127 1321.72 288.105 1321.41 288.076L1280.01 283.856C1272.56 283.099 1268 275.307 1271 268.441L1278.02 252.379C1279.94 247.968 1284.5 245.314 1289.28 245.814L1329.32 249.997C1329.66 250.034 1330.01 250.056 1330.36 250.063C1341.69 250.262 1350.1 249.107 1355.57 246.608L1355.59 246.63Z" fill="#EF577C"/>
</svg>
