<svg width="367" height="291" viewBox="0 0 367 291" fill="none" xmlns="http://www.w3.org/2000/svg">
<g opacity="0.7">
<path d="M62.4303 80.7375C62.388 81.3377 64.2906 83.9908 66.8497 86.5128C70.4516 90.3061 71.7176 91.089 73.3586 90.7616C74.4525 90.5432 75.513 90.0357 75.6982 89.7029C76.0709 88.8148 67.9271 80.6021 66.0426 79.7947C63.9393 79.031 62.5529 79.3816 62.4303 80.7375Z" fill="#FBC462"/>
<path d="M189.047 65.9739C188.159 71.1071 189.849 73.1367 192.93 70.7466C194.066 69.9281 195.335 63.0176 194.621 61.6808C194.335 61.1461 193.136 60.9415 191.933 61.1817C190.292 61.5092 189.515 62.7737 189.047 65.9739Z" fill="#FBC462"/>
<path d="M154.743 71.5614C153.237 73.0456 151.786 76.2199 151.436 78.5089C151.085 80.7979 150.557 82.7527 150.228 82.8181C149.9 82.8836 148.125 82.0544 146.207 80.9578C138.609 76.4827 128.783 76.4464 126.12 80.7503C123.272 85.387 132.818 95.317 145.572 101.056C152.384 104.061 157.506 105.036 162.32 104.075C170.634 102.416 175.451 82.6666 170.093 72.4185C168.914 70.2128 167.902 69.4531 165.033 68.8421C160.094 67.7566 157.868 68.3488 154.743 71.5614Z" fill="#FBC462"/>
<path d="M39.7337 94.2183C39.1444 94.9277 49.8911 101.216 51.8559 101.267C52.5837 101.27 53.7156 100.896 54.3385 100.476C55.2917 99.7679 54.3896 98.9863 50.0846 96.3689C44.9825 93.3928 41.0596 92.6223 39.7337 94.2183Z" fill="#FBC462"/>
<path d="M210.514 66.2749C207.559 70.7111 207.72 72.8241 210.892 72.191C213.737 71.6233 218.66 63.1697 216.557 62.406C214.092 61.4185 213.469 61.8387 210.514 66.2749Z" fill="#FBC462"/>
<path d="M20.2808 103.573C19.8701 104.617 36.0626 112.259 38.0317 111.866C41.3136 111.211 39.909 109.716 32.2303 105.997C24.8061 102.3 21.1378 101.553 20.2808 103.573Z" fill="#FBC462"/>
<path d="M228.783 69.8799C224.926 73.5346 224.656 75.0678 227.858 75.1686C228.985 75.2394 231.293 73.6692 233.682 71.3433C236.843 68.1975 237.325 67.2877 235.947 66.7489C233.482 65.7615 233.007 66.0043 228.783 69.8799Z" fill="#FBC462"/>
<path d="M98.7702 115.871C96.0804 119.219 93.5291 123.278 93.1119 124.989L92.2081 128.054L90.9553 125.937C88.8827 122.061 83.9769 117.64 81.1457 116.873C77.3344 115.859 70.15 117.366 68.0896 119.627C67.1699 120.624 66.1678 122.599 65.7528 124.088C65.0321 127.042 66.5005 136.809 68.18 139.95C68.7517 141.02 68.7787 141.976 68.1223 142.107C67.5753 142.216 66.8139 141.924 66.5638 141.457C66.3137 140.989 64.2126 140.003 61.9262 139.349C54.0156 137.008 45.9428 140.024 44.613 145.689C43.7005 149.644 46.3069 154.745 55.7151 167.588C65.0519 180.296 72.4845 194.199 73.4031 200.673C74.2234 206.057 72.0394 217.144 67.8506 228.558C65.9046 233.976 65.7463 235.265 67.3449 235.538C68.3988 235.697 69.5642 235.613 70.1848 235.415C71.4283 234.797 76.4808 220.696 78.1964 212.809C80.4073 202.677 79.299 196.981 73.0099 185.218C70.044 179.67 64.5972 171.067 60.9706 166.095C57.3439 161.123 53.2929 154.905 51.8256 152.386C48.2523 145.703 49.7074 142.084 56.0793 141.774C59.7565 141.632 63.7355 144.092 67.5094 148.887C71.7144 154.261 75.8363 156.989 78.5377 156.154C80.6184 155.517 80.4777 155.027 76.5602 146.341C72.2518 136.697 70.2612 128.218 71.3611 123.708C71.8185 121.62 72.7003 120.778 75.2543 120.12C80.6549 118.673 82.6356 120.792 88.1545 133.153C95.3083 149.478 95.0224 148.944 97.5386 148.442C99.3983 148.07 99.5522 147.226 98.2499 142.752C96.2482 135.385 96.7072 129.449 99.8274 123.057C103.247 115.865 106.997 112.01 110.859 111.535C115.633 110.952 116.591 113.424 115.534 124.582C114.411 138.787 114.33 147.014 115.344 147.551C117.371 148.626 119.423 147.255 120.07 144.389C121.127 140.479 127.231 134.231 131.798 132.358C137.06 130.198 145.153 128.805 150.501 129.07C160.432 129.529 171.953 134.774 174.847 140.188C176.42 143.129 175.695 146.528 173.288 147.009C172.631 147.14 169.001 146.237 165.192 145C151.697 140.592 137.219 143.629 131.859 151.948C126.686 159.934 132.929 168.895 146.427 173.081C152.812 175.061 158.521 175.549 168.899 175.031C178.22 174.577 181.453 175.189 182.775 177.662C184.705 181.271 177.969 185.204 164.471 188.49C157.066 190.264 153.422 190.695 146.251 190.869C131.071 191.235 131.913 190.771 130.731 199.883C128.992 213.841 129.008 234.253 130.75 234.793C133.943 235.783 134.909 233.741 134.997 224.847C134.982 215.308 135.757 203.171 136.54 197.615L137.008 194.414L145.673 194.091C152.554 193.827 156.963 193.243 165.9 191.163C184.357 186.962 191.211 182.118 187.744 175.635C186.244 172.827 181.707 171.588 174.388 171.939C157.13 172.72 148.445 171.421 141.864 167.038C132.283 160.666 134.054 150.844 145.52 146.929C150.523 145.19 156.596 145.68 163.558 148.285C169.033 150.373 170.341 150.556 173.951 149.835C177.233 149.18 178.733 148.363 180.392 146.257C182.564 143.752 182.747 143.642 183.462 144.978C183.89 145.78 186.135 147.034 188.457 147.754C194.407 149.599 199.149 148.505 204.323 144.144C213.277 136.661 217.584 135.432 223.666 138.656C230.872 142.396 231.695 151.182 225.373 157.474C222.065 160.797 214.456 164.682 209.205 165.73C204.173 166.734 196.458 170.419 194.799 172.525C190.855 177.603 196.377 182.27 207.067 183.244C212.486 183.642 214.89 183.384 225.319 181.377C235.274 179.39 238.303 178.489 243.094 176.128C252.933 171.206 252.241 171.27 259.701 175.033C274.294 182.402 287.81 192.058 296.128 201.049C299.154 204.218 300.239 204.889 301.88 204.561C305.053 203.928 304.159 202.257 297.201 195.583C286.999 185.784 268.193 173.708 255.466 168.925L251.624 167.398L246.462 170.426C239.946 174.315 232.054 177.443 225.49 178.753C208.862 182.072 195.023 179.286 200.356 173.635C202.894 170.91 203.479 170.645 212.24 168.009C216.73 166.669 221.916 164.821 223.708 163.871C238.818 155.9 239.199 139.403 224.284 135.056C220.002 133.84 213.558 134.016 209.576 135.625C208.151 136.131 204.816 138.498 202.099 140.889C196.922 145.473 194.109 146.552 190.774 145.294C183.124 142.309 188.302 130.254 200.27 123.427C211.397 117.065 222.741 118.129 240.048 127.176C244.067 129.259 246.715 130.136 248.137 129.852C249.231 129.634 250.037 129.103 249.822 128.702C249.608 128.301 239.663 121.927 227.762 114.612C205.37 100.81 204.144 99.6497 208.35 97.5528C215.153 94.1981 242.169 103.97 254.08 114.02C256.605 116.253 260.314 116.622 261.133 114.758C261.283 114.358 254.966 109.109 247.054 103.143C239.252 97.1554 232.464 91.7049 232.071 90.9697C230.32 87.6946 238.324 87.9465 249.062 91.4993C257.441 94.2651 263.883 97.9355 269.256 103.003C273.726 107.288 275.611 108.096 277.084 106.323C277.932 105.192 276.854 103.854 269.393 96.466C262.04 89.2791 260.818 87.6736 261.629 86.6983C263.249 84.7475 266.518 85.4266 271.944 88.782C278.89 92.9434 285.636 98.9941 291.86 106.333C297.4 112.846 300.395 119.127 304.626 132.929C309.245 147.91 315.208 155.893 327.795 163.81C337.271 169.76 354.584 178.14 356.663 177.725C360.054 177.048 358.181 175.129 350.393 171.432C324.202 159.128 315.948 150.937 310.026 131.481C307.279 122.266 300.458 109.055 295.494 103.166C288.12 94.356 274.861 84.5013 268.397 83.0544C261.534 81.5393 254.08 84.5803 255.974 88.1227C256.831 89.7268 256.577 89.7037 249.209 87.6975C237.848 84.5649 229.217 85.1779 226.483 89.3481C225.632 90.7013 226.742 92.551 230.817 96.3238C232.26 97.6632 231.751 97.6169 226.162 95.9953C219.993 94.1937 212.395 93.343 208.785 94.0635C205.613 94.6966 201.032 97.9039 200.686 99.7481C200.262 102.126 202.066 103.689 213.425 110.668C218.525 113.867 222.466 116.483 222.247 116.526C222.028 116.57 219.7 116.517 217.081 116.374C203.149 115.678 187.964 123.96 182.906 134.881L180.786 139.521L178.629 136.845C174.134 131.38 161.773 126.376 152.059 126.096C141.726 125.791 131.112 128.131 124.484 132.264C122.506 133.547 120.861 134.319 120.718 134.052C120.575 133.784 120.947 129.272 121.399 124.004C121.961 118.714 121.795 113.421 121.116 112.151C119.365 108.876 114.61 107.68 108.483 108.903C103.998 109.798 103.266 110.24 98.7702 115.871Z" fill="#FBC462"/>
</g>
</svg>
