<svg width="45" height="44" viewBox="0 0 45 44" fill="none" xmlns="http://www.w3.org/2000/svg">
<g clip-path="url(#clip0_415_331)">
<path d="M36.0399 23.0487L22.2899 36.6667L8.53994 23.0487C7.633 22.1662 6.91862 21.1054 6.44178 19.9332C5.96494 18.7611 5.73597 17.5028 5.76929 16.2378C5.80261 14.9728 6.09751 13.7283 6.6354 12.5829C7.17329 11.4374 7.94252 10.4157 8.89466 9.58214C9.84681 8.74857 10.9612 8.12118 12.1678 7.73946C13.3743 7.35775 14.6468 7.22998 15.9051 7.36422C17.1634 7.49845 18.3804 7.89177 19.4792 8.51941C20.5781 9.14705 21.5351 9.99541 22.2899 11.0111C23.0481 10.0028 24.0062 9.16183 25.1043 8.54086C26.2024 7.91988 27.4168 7.53224 28.6716 7.4022C29.9264 7.27216 31.1946 7.40253 32.3967 7.78513C33.5988 8.16774 34.709 8.79435 35.6578 9.62575C36.6066 10.4571 37.3736 11.4754 37.9107 12.6169C38.4479 13.7583 38.7436 14.9984 38.7795 16.2594C38.8154 17.5204 38.5906 18.7752 38.1192 19.9454C37.6478 21.1155 36.9399 22.1758 36.0399 23.0597" stroke="white" stroke-width="3.66667" stroke-linecap="round" stroke-linejoin="round"/>
<path d="M22.2912 11L16.2541 17.0372C15.9104 17.381 15.7173 17.8472 15.7173 18.3333C15.7173 18.8195 15.9104 19.2857 16.2541 19.6295L17.2496 20.625C18.5146 21.89 20.5679 21.89 21.8329 20.625L23.6662 18.7917C24.7602 17.6977 26.2441 17.0831 27.7912 17.0831C29.3384 17.0831 30.8222 17.6977 31.9162 18.7917L36.0412 22.9167" stroke="white" stroke-width="3.66667" stroke-linecap="round" stroke-linejoin="round"/>
<path d="M23.2075 28.416L26.8742 32.0827" stroke="white" stroke-width="3.66667" stroke-linecap="round" stroke-linejoin="round"/>
<path d="M27.7915 23.834L31.4582 27.5007" stroke="white" stroke-width="3.66667" stroke-linecap="round" stroke-linejoin="round"/>
</g>
<defs>
<clipPath id="clip0_415_331">
<rect width="44" height="44" fill="white" transform="translate(0.291504)"/>
</clipPath>
</defs>
</svg>
