<svg width="209" height="163" viewBox="0 0 209 163" fill="none" xmlns="http://www.w3.org/2000/svg">
<path d="M12.8276 74.3946C13.8514 81.0013 16.5346 86.8062 21.4146 92.6834C25.8035 97.9692 28.5235 100.034 34.4113 102.584C37.7743 104.061 39.6138 104.46 45.0599 104.813C51.303 105.217 51.7629 105.317 53.7468 106.95C61.3911 113.356 75.9925 114.442 91.1751 109.794C104.892 105.577 123.981 94.8871 134.398 85.5591C137.965 82.3627 138.766 81.4353 138.684 80.7305C138.478 79.4231 137.748 79.8304 131.919 84.3143C118.342 94.9064 102.959 103.248 89.8645 107.156C79.8346 110.214 69.8581 110.687 62.5761 108.501C59.6734 107.578 55.0731 105.217 55.0827 104.623C55.0978 104.414 56.5937 103.567 58.391 102.704C62.2305 100.819 64.0474 99.223 65.8629 96.2628C67.7548 93.1677 67.8534 89.9564 66.1086 87.3251C64.2973 84.6895 63.1828 83.9528 60.572 83.6088C57.5983 83.2062 54.8104 84.3896 52.1416 87.1546C48.6054 90.8427 47.4964 95.1078 48.8805 99.4994C49.2598 100.713 49.3735 101.91 49.0877 102.171C48.3732 102.824 41.0876 102.072 37.6994 100.943C27.8211 97.7502 19.2285 88.3098 15.4712 76.5945C14.7124 74.167 13.8571 72.153 13.6272 72.1031C12.7789 71.8383 12.565 72.489 12.8276 74.3946ZM56.5653 86.8816C58.674 85.8641 62.2454 86.3053 63.4731 87.7839C65.867 90.6671 65.0639 94.3924 61.175 97.8827C57.9598 100.822 53.5169 102.283 52.2893 100.805C50.7547 98.9563 50.5002 95.0926 51.6721 92.2656C52.9104 89.4428 54.0687 88.1888 56.5653 86.8816Z" fill="#F0B54C"/>
<path d="M16.4751 94.5564C17.5324 98.8524 24.9908 104.726 27.029 102.862C28.0074 101.968 27.6275 101.51 21.4465 95.7073C16.8722 91.4073 15.6586 91.1547 16.4751 94.5564Z" fill="#F0B54C"/>
<path d="M79.3958 101.119C80.1516 102.029 85.5534 102.079 89.9654 101.247C95.7971 100.103 100.428 97.9021 107.317 92.8974C110.471 90.6294 111.603 89.3481 111.022 88.6479C110.557 88.0878 108.967 88.7403 104.283 91.4217C95.9408 96.154 89.5034 98.5907 83.1989 99.243C79.564 99.6102 78.5819 100.139 79.3958 101.119Z" fill="#F0B54C"/>
<path d="M150.162 43.9482C150.192 44.8884 151.399 47.8492 153.864 53.0788L155.579 56.8013L151.741 64.3098C147.324 72.9286 146.907 74.0839 147.729 75.0741C148.704 76.2477 150.746 75.5423 156.379 72.0048C159.335 70.1407 161.972 68.5691 162.307 68.5207C163.013 68.3914 165.54 71.4354 169.336 77.0616C172.893 82.3253 173.371 82.5987 175.611 80.5503C176.393 79.835 180.713 73.4344 185.15 66.346C189.652 59.2619 194.186 52.2143 195.298 50.6163C197.672 47.2209 198.272 45.3819 197.338 44.5584C196.932 44.2201 194.032 43.9678 190.782 43.9715C187.532 43.9751 180.301 43.5541 174.705 42.9928C157.618 41.325 156.232 41.2376 154.139 41.2795C152.047 41.3214 150.163 42.5928 150.162 43.9482ZM162.374 44.718C166.818 45.1718 173.338 45.7913 176.831 46.081C180.325 46.3707 183.382 46.7372 183.605 46.8555C184.022 47.0556 181.574 47.8744 166.641 52.4939C160.059 54.5119 157.936 54.9689 157.678 54.4313C154.832 48.0655 153.528 44.6122 153.884 44.287C154.097 44.092 157.896 44.2966 162.374 44.718ZM174.782 52.729C187.85 49.1041 190.003 48.6837 187.727 50.3128C180.097 55.7402 166.951 63.5655 162.268 65.4598C160.592 66.1535 157.94 67.4809 156.34 68.4922C154.745 69.4343 153.191 70.2747 152.891 70.2905C152.592 70.3064 153.161 68.4308 154.188 66.2017C155.149 63.9685 156.318 61.1575 156.735 60.0021L157.518 57.9315L159.906 57.0393C161.267 56.569 167.945 54.5919 174.782 52.729ZM169.687 64.6763C172.761 63.028 188.289 53.4761 189.285 52.5658C190.24 51.7571 189.046 54.0104 186.078 58.7237C184.355 61.3955 181.097 66.89 178.81 70.9164C176.558 74.9103 174.515 78.3265 174.302 78.5215C173.911 78.8792 172.88 77.5631 167.456 69.7489C166.436 68.2944 165.771 66.9666 165.984 66.7715C166.162 66.6089 167.859 65.6385 169.687 64.6763Z" fill="#F0B54C"/>
</svg>
