<svg width="91" height="105" viewBox="0 0 91 105" fill="none" xmlns="http://www.w3.org/2000/svg">
<path d="M35.7101 18.4808C34.525 20.2042 31.9534 23.1984 30.0988 25.3364L26.6816 29.0544L28.6394 35.6071C29.7533 39.2063 30.2367 42.5243 29.816 42.9497C28.9145 43.8613 28.7858 43.7289 23.7257 37.2942L20.2264 32.9566L16.4156 34.1848C13.772 35.0202 12.0943 35.0102 11.258 34.1494C10.1644 33.0237 10.4522 32.3389 13.5647 28.7977L17.0979 24.8311L15.3153 19.8078C13.5327 14.7845 12.7412 9.67775 13.5826 8.82692C14.6644 7.733 17.5551 10.5857 20.1961 15.2662C21.7781 17.9982 23.4718 20.3548 23.9052 20.3103C24.403 20.3321 27.2784 18.9996 30.3943 17.4241C37.0467 13.8475 38.8615 14.2439 35.7101 18.4808Z" fill="#F0B54C"/>
<path d="M46.3606 63.7693C46.1972 64.4596 44.0971 68.5523 41.6922 72.8218L37.2905 80.5545L39.6962 83.7664C43.1396 88.2918 42.9499 90.0587 39.1061 88.4324C37.403 87.6605 35.4469 86.7507 34.7477 86.2763C33.671 85.6586 32.0872 86.6037 27.5586 90.5268C24.116 93.4829 20.8325 95.6218 19.5924 95.6943C17.6701 95.8005 17.6701 95.8005 17.8513 93.7795C17.9376 92.6421 19.3377 89.9136 21.0078 87.831C27.7999 79.125 27.8126 79.506 23.2629 73.474C16.5005 64.4288 18.3467 62.0368 26.7148 68.9332C29.3312 71.0131 31.8791 72.8998 32.3811 73.0486C33.0074 73.2028 35.9092 70.7936 39.0343 67.6334C44.3832 62.2246 46.8253 60.9366 46.3606 63.7693Z" fill="#F0B54C"/>
<path d="M77.3626 28.6053L75.4301 32.1347L79.0327 35.8427C83.7288 40.6765 85.0535 43.1437 83.5942 44.0943C82.8646 44.5696 80.475 43.7042 76.9232 41.52L71.411 38.2991L65.8819 43.8902C56.927 52.9454 54.4096 50.109 60.98 38.4768L63.9732 33.2186L60.2335 29.1241C54.8127 23.0541 52.9776 20.1841 53.9392 19.2117C55.0811 18.057 57.3463 18.9169 62.7552 22.7674C69.7554 27.7653 69.7554 27.7653 72.6741 25.8641C77.962 22.3547 80.1154 23.5901 77.3626 28.6053Z" fill="#F0B54C"/>
</svg>
