<svg width="94" height="107" viewBox="0 0 94 107" fill="none" xmlns="http://www.w3.org/2000/svg">
<path d="M63.9374 -10.1682C63.4965 -7.85351 63.772 3.16874 64.3231 3.66474C64.5436 3.88519 64.9294 3.88519 65.26 3.66474C65.9214 3.27897 66.1418 -9.61707 65.5356 -11.1602C64.9845 -12.5931 64.268 -12.1522 63.9374 -10.1682Z" fill="#F9839D"/>
<path d="M95.0211 -0.634475C92.7616 1.73531 88.4629 8.51399 88.4629 9.56111C88.4629 11.986 90.7225 9.56111 94.8558 2.6722C97.1705 -1.07537 97.2256 -3.05937 95.0211 -0.634475Z" fill="#F9839D"/>
<path d="M32.8008 8.45873C32.8008 9.67118 43.6026 19.9219 44.8701 19.9219C46.6337 19.9219 45.807 18.7645 39.7999 12.8676C35.0052 8.18318 32.8008 6.80539 32.8008 8.45873Z" fill="#F9839D"/>
<path d="M69.6133 18.82C65.8658 22.788 60.6302 29.236 58.0951 33.1489L57.2133 34.4716L46.5217 32.708C33.5155 30.5587 26.4612 30.0076 24.5323 31.0547C22.8239 31.9365 22.4381 34.3614 23.7057 36.2351C24.8079 37.9436 31.6417 43.3445 38.0346 47.6432C40.735 49.4618 43.215 51.1152 43.4906 51.3907C43.7662 51.6112 42.3884 53.5952 40.4044 55.8547C32.9644 64.2317 27.839 71.7819 27.839 74.3721C27.839 74.9232 28.1146 75.6397 28.5003 76.0255C30.0986 77.6237 33.791 76.5215 48.0097 70.349C53.1902 68.0894 57.8195 66.2157 58.3706 66.2157C58.8666 66.2157 60.4649 67.4832 61.8978 69.0814C70.0542 78.0095 78.5965 85.2842 81.6276 85.8353C85.8712 86.6068 86.0365 84.5126 82.8951 72.1677C80.3049 62.1374 80.1947 62.7988 85.3752 60.9801C89.2881 59.6023 96.0116 56.1854 98.8223 54.1463C100.586 52.8236 101.137 52.0521 101.137 50.8396C101.137 48.6352 99.7592 47.8636 91.6578 45.5489C79.0374 41.8565 78.1556 41.5258 77.4943 39.8725C77.1085 38.9356 76.9431 34.4165 76.9982 27.1969C77.1636 16.6706 77.1085 15.9542 76.1165 15.1826C75.5102 14.7417 74.7387 14.4111 74.4631 14.4111C74.1325 14.4111 71.928 16.3951 69.6133 18.82ZM74.1325 30.3382V41.3054L75.5654 43.0138C76.9982 44.7774 79.8089 45.7694 92.2641 49.2414C94.8543 49.9578 97.0036 50.7845 97.1139 51.1152C97.2241 51.4458 94.4134 53.1543 90.8312 54.8627C87.2489 56.6263 82.9503 58.7205 81.2969 59.4921C77.2187 61.5312 77.0534 62.4681 79.2027 70.5694C81.7929 80.4895 82.0685 81.6468 81.6827 81.9775C81.0214 82.6388 78.4311 80.4895 70.2196 72.4983C65.7556 68.1997 61.4569 64.2317 60.6853 63.6805C58.5911 62.3579 56.8826 62.7988 45.6399 67.5383C35.6097 71.7268 32.799 72.7188 32.799 72.0023C32.799 71.0654 37.2079 65.1134 42.223 59.3267C45.8053 55.1934 47.6791 52.6032 47.6791 51.7214C47.6791 50.1232 46.1911 48.7454 38.5857 43.4547C35.279 41.0849 31.311 38.1089 29.7679 36.7311L27.0123 34.3062L29.9332 34.2511C31.5315 34.2511 38.1999 35.1329 44.7031 36.2351C51.2062 37.3374 56.8826 38.0538 57.3235 37.8885C57.7093 37.7782 61.512 33.5347 65.7004 28.5196C69.8889 23.4493 73.4711 19.3711 73.6916 19.3711C73.9671 19.3711 74.1325 24.3311 74.1325 30.3382Z" fill="#F9839D"/>
<path d="M0.0628037 25.0468C0.393471 25.9837 11.0851 30.3926 12.8486 30.3926C15.494 30.3926 13.6202 28.9597 7.94371 26.7001C1.9917 24.2752 -0.433198 23.7792 0.0628037 25.0468Z" fill="#F9839D"/>
<path d="M16.8181 54.3112C10.7559 56.6259 8.93718 57.5077 8.66163 58.3343C8.5514 58.7752 8.88207 59.0508 9.4883 59.0508C11.0865 58.9957 23.0457 53.8703 23.3212 53.0988C23.6519 52.0517 21.8332 52.3272 16.8181 54.3112Z" fill="#F9839D"/>
<path d="M21.2258 82.5833C19.4622 83.7406 13.3449 88.9211 12.8489 89.6375C12.2978 90.354 12.2978 91.5664 12.8489 91.5664C13.7307 91.5664 23.4302 83.2446 23.4302 82.473C23.4302 81.4259 22.8791 81.4259 21.2258 82.5833Z" fill="#F9839D"/>
<path d="M55.2847 93.6067C55.1194 102.039 55.6154 105.345 56.8829 104.078C58.1505 102.755 57.5443 88.812 56.1665 88.812C55.5603 88.812 55.3949 89.9143 55.2847 93.6067Z" fill="#F9839D"/>
<path d="M85.4868 91.5118C85.2664 91.8425 86.4788 94.9838 88.1873 98.566C91.1633 104.794 92.5411 106.998 93.5331 106.998C94.5251 106.998 93.8637 105.014 90.8877 99.1171C87.6913 92.6691 86.093 90.4647 85.4868 91.5118Z" fill="#F9839D"/>
</svg>
