<svg width="93" height="109" viewBox="0 0 93 109" fill="none" xmlns="http://www.w3.org/2000/svg">
<path d="M39.2477 1.24509C38.8178 2.73204 38.8178 2.69746 40.5372 19.4689C41.2127 26.2466 41.704 31.9178 41.6119 32.0215C41.5198 32.1252 39.1863 30.7075 36.4536 28.8401C31.2338 25.3129 27.9485 23.5493 26.6589 23.5148C25.1851 23.5148 24.5096 24.4138 24.5096 26.3158C24.5096 28.3214 25.0623 30.0158 28.5626 38.7301C31.4488 45.8882 31.9093 47.5134 31.2645 48.205C30.4355 49.1041 27.9485 49.7957 15.1141 52.7005C8.14422 54.2912 1.91125 55.8819 1.26646 56.2622C-0.913543 57.438 -0.207345 59.5474 2.83238 60.8268C3.6921 61.1726 8.14422 62.4175 12.7192 63.5933C25.3693 66.8092 33.1068 69.5065 33.1068 70.7168C33.1068 70.9934 32.0322 72.4804 30.7119 74.0711C25.9527 79.7768 23.0358 83.6844 22.8209 84.618C22.6674 85.3442 22.7595 85.69 23.2814 86.1741C23.8341 86.6928 24.0797 86.6928 25.2772 86.3125C26.0141 86.0358 29.7907 83.961 33.6288 81.6787C37.4668 79.3964 40.9671 77.4599 41.397 77.3562C42.6558 77.0104 43.0243 77.5637 43.1471 79.7768C43.2085 80.8834 43.4541 86.5545 43.6998 92.3986C44.3139 106.092 44.6823 108.236 46.4325 108.236C48.4589 108.236 49.9942 104.675 54.5077 89.2518C56.4421 82.6815 58.1922 77.0795 58.4071 76.8375C58.7142 76.4571 59.0212 76.6646 59.9731 77.8749C62.4294 81.0217 69.215 88.5948 70.0134 89.0789C71.8863 90.1854 72.9303 89.2172 72.6232 86.6583C72.5004 85.8629 71.3951 81.3675 70.1362 76.5954C68.8773 71.8579 67.8641 67.9158 67.9255 67.8466C67.9869 67.7775 69.8598 68.2962 72.0398 68.9878C77.2903 70.613 85.7647 72.5841 88.8351 72.8262C91.0765 73.0337 91.3528 72.9991 91.8748 72.342C93.0723 70.8205 92.4889 70.0598 82.6021 59.6857C79.0097 55.9164 76.1235 52.6313 76.1849 52.4238C76.2463 52.2164 77.9658 50.9369 79.9922 49.6228C85.0585 46.3031 87.9754 43.8479 88.5895 42.361C89.0807 41.1853 89.0807 41.1161 88.4666 40.4245C87.6069 39.4217 83.7689 38.9721 78.8255 39.2142C76.7069 39.3179 74.8646 39.3179 74.7725 39.1796C74.6497 39.0759 76.1849 37.0702 78.1807 34.7879C83.9224 28.1139 88.7737 21.7858 89.8483 19.4689C90.708 17.6707 90.1861 16.2529 88.6816 16.2529C88.0368 16.2529 81.9573 19.6418 73.5136 24.6559C70.1362 26.6616 67.3114 28.2523 67.1886 28.1831C67.0657 28.1139 67.035 24.483 67.1272 20.1605C67.2807 11.1696 67.035 9.57893 65.6226 9.40603C64.5787 9.26771 64.3638 9.64809 60.7407 17.2903C57.6395 23.8951 56.4114 26.2812 56.0736 26.2812C55.9508 26.2812 55.3367 25.2438 54.6612 23.9297C54.0164 22.6503 52.5426 19.7455 51.4066 17.4632C47.8142 10.3397 43.7919 3.14701 42.533 1.55632C41.6426 0.380592 41.1206 0.000205994 40.4758 0.000205994C39.7389 0.000205994 39.5547 0.207687 39.2477 1.24509ZM42.5944 4.94518C44.5288 8.2303 49.4722 17.6361 51.9285 22.7194C53.955 26.9728 55.1218 28.7018 56.0122 28.7018C57.0561 28.7018 58.7756 25.97 61.6004 19.7801C63.197 16.3567 64.6708 13.2444 64.9164 12.8986C65.2849 12.3454 65.3463 12.3799 65.4077 13.4865C65.4384 14.1435 65.4691 18.1894 65.4998 22.4774V30.2579L66.3288 30.3616C66.9429 30.4308 69.9827 28.8401 77.2903 24.5867C82.8477 21.3362 87.5455 18.6735 87.7297 18.6735C87.914 18.6735 88.0675 18.7773 88.0675 18.9156C88.0675 19.5726 80.3914 29.3242 76.1542 34.1309C73.5751 37.0356 71.4872 39.5946 71.4872 39.8712C71.4872 41.0469 72.132 41.1507 79.501 41.1507C83.5232 41.1507 86.87 41.289 86.9621 41.4619C87.392 42.1881 84.1373 44.8508 78.4263 48.4471C74.9874 50.5911 74.097 51.5939 74.4348 53.0463C74.5576 53.6687 77.1675 56.6772 82.2644 62.1409C86.4709 66.6017 89.9097 70.4056 89.9097 70.5785C89.9097 71.3738 85.7647 70.5093 75.7244 67.7083C66.0525 65.011 65.9604 65.011 65.9604 67.2933C65.9604 67.9158 66.6359 70.8551 67.4649 73.7944C69.5835 81.2292 70.8731 86.7966 70.5046 86.7966C70.0441 86.7966 66.9429 83.3731 63.2584 78.774C59.4511 74.0019 58.837 73.4832 57.9773 74.0019C57.0254 74.5898 56.3807 76.3188 53.5252 86.2779C49.6257 99.8333 47.5378 105.816 46.6474 105.816C46.064 105.816 45.8184 102.738 45.235 88.1452C44.9894 81.7479 44.6516 77.2179 44.4367 76.6646C43.5156 74.3823 41.0285 74.8318 35.2561 78.3244C29.0538 82.0591 26.0141 83.7535 25.8299 83.546C25.615 83.3386 26.6282 81.9899 30.9268 76.8375C34.642 72.342 35.471 70.9243 34.9798 69.8869C33.8437 67.5354 28.0713 65.3568 11.6138 61.0343C5.1045 59.3399 2.70956 58.5445 2.70956 58.095C2.70956 57.7146 2.80168 57.7146 15.6054 54.8099C28.1941 51.9743 30.2513 51.421 31.94 50.4528C34.4578 49.0004 34.2736 47.4789 30.2513 37.416C27.1195 29.67 26.1983 26.869 26.4747 26.1083C26.751 25.2438 29.0845 26.4541 35.8088 30.9841C41.7347 34.9954 42.9936 35.6524 43.3313 34.9954C43.4234 34.8571 43.362 33.8888 43.2085 32.8514C42.7172 29.2897 40.6601 4.25357 40.7522 2.83578C40.8136 2.1096 41.0285 2.35165 42.5944 4.94518Z" fill="#F0B54C"/>
<path d="M51.7754 35.101C47.2926 36.3805 42.1036 40.5993 39.4937 45.0947C38.2041 47.377 36.976 51.3191 36.6689 54.3622C35.7478 62.9035 42.5948 69.9579 50.9157 69.0242C59.3594 68.056 67.7109 59.9988 68.6935 51.8724C69.4611 45.3368 66.4828 38.6974 61.478 35.9309C59.7278 34.9627 59.1137 34.8244 56.5039 34.7206C54.6002 34.6515 52.8808 34.7898 51.7754 35.101ZM60.5261 38.0058C62.5219 39.1123 64.794 41.7058 65.8687 44.161C66.6363 45.9938 66.7284 46.5125 66.7284 49.7976C66.7284 53.1173 66.6363 53.6014 65.838 55.5034C64.794 57.8894 61.785 61.4512 59.1137 63.4222C49.7489 70.3383 38.634 66.1886 38.634 55.8146C38.634 51.3191 40.6912 45.4059 43.2089 42.5703C44.5599 41.0834 49.1963 38.2824 51.5605 37.5216C54.1089 36.7263 58.6532 36.9683 60.5261 38.0058Z" fill="#F0B54C"/>
<path d="M55.9189 46.5824C55.3355 46.8245 55.4276 48.346 56.0417 48.7264C57.1778 49.418 58.2217 47.7927 57.3006 46.7553C56.9014 46.3058 56.5637 46.2712 55.9189 46.5824Z" fill="#F0B54C"/>
<path d="M46.1264 51.6622C45.7887 52.6304 46.1571 53.4258 46.9862 53.5295C47.938 53.6679 48.46 52.5267 47.8459 51.6968C47.3546 51.0398 46.3414 51.0398 46.1264 51.6622Z" fill="#F0B54C"/>
<path d="M55.7054 56.9534C55.8896 59.2703 55.8282 59.7544 55.337 60.446C54.8457 61.1376 54.6308 61.2068 53.9553 60.9301C53.2184 60.5843 52.0823 59.2703 51.3761 57.9217C51.0998 57.403 51.0077 57.403 50.7006 57.8179C50.1479 58.5441 51.3147 60.9993 52.6043 61.8984C54.7229 63.3853 56.7801 62.3133 57.2099 59.5123C57.3941 58.1637 56.9336 55.501 56.3809 54.7057C55.7054 53.772 55.5212 54.3945 55.7054 56.9534Z" fill="#F0B54C"/>
</svg>
