<svg width="114" height="114" viewBox="0 0 114 114" fill="none" xmlns="http://www.w3.org/2000/svg">
<path d="M71.9401 -22.0568C40.103 0.865095 36.5335 4.04304 37.5856 8.39515C37.9999 9.85792 42.5777 14.3852 49.6463 20.3742C55.9467 25.7229 61.5199 30.7358 61.9656 31.5125C63.1299 33.7109 61.8399 34.2568 39.3763 41.6573C17.9576 48.7618 13.9196 50.7633 13.2129 54.4848C12.5787 57.8247 12.7514 57.9563 21.6535 68.3469C25.9318 73.4105 29.5603 78.2519 29.6835 79.165C29.884 80.1918 27.4367 83.1873 22.8683 87.4608C3.93168 104.923 -2.62014 112.874 1.29226 113.616C3.20074 113.979 63.0614 89.2601 64.5689 87.569C66.3941 85.2463 65.3384 82.4753 59.6275 75.0635C56.6175 71.1305 54.3117 67.1335 54.4748 66.2747C55.0908 63.0303 64.6346 59.1083 87.5076 52.6754C106.315 47.3489 110.871 45.7424 111.692 44.02C112.214 42.8338 112.636 41.1343 112.495 40.3165C112.075 38.3585 107.175 33.9677 100.08 29.1601C96.9345 26.981 92.7709 23.9165 90.8299 22.1637C84.7022 16.9467 85.642 15.6422 104.55 3.01866C114.732 -3.74786 121.104 -8.66756 121.322 -9.81264C121.557 -11.0532 120.07 -13.1151 116.611 -16.2436C109.769 -22.3872 93.8651 -33.9096 91.4794 -34.3626C90.3344 -34.5801 83.0446 -30.0324 71.9401 -22.0568ZM103.324 -19.1621C109.483 -14.6312 114.551 -10.6039 114.479 -10.2222C114.406 -9.84055 111.717 -8.1761 108.552 -6.60225C100.003 -2.19474 86.5916 7.51781 84.2264 11.1222C79.2509 18.5809 80.9021 21.8604 95.0791 32.0662C100.452 36.0524 105.097 39.7028 105.275 40.3297C105.803 41.7152 105.498 41.7562 89.1758 45.9728C59.6653 53.5181 48.3145 59.6673 49.4957 67.5042C49.7011 69.0262 52.1615 73.2503 55.035 76.8608C57.8132 80.4531 60.055 83.7459 59.9825 84.1276C59.91 84.5093 56.8939 85.815 53.287 87.1074C49.5667 88.4771 39.814 92.4582 31.524 96.025C23.2341 99.5918 16.384 102.345 16.2113 102.213C16.0567 101.986 20.3026 97.8488 25.5522 93.1115C35.6927 83.9642 37.0045 81.7416 35.0889 76.7312C34.5973 75.1549 30.6415 69.9548 26.4224 65.1001C22.2032 60.2455 18.8477 56.0492 18.9202 55.6675C19.1014 54.7132 25.6652 51.9062 32.9018 49.7212C64.8644 39.6755 67.976 38.388 68.7914 34.0939C69.5343 30.1815 67.0292 27.2341 54.2606 16.9003C48.0013 11.856 42.8919 7.52433 42.91 7.4289C43.0912 6.47466 51.752 -0.0865436 66.8667 -10.9587C76.477 -17.8339 85.3286 -24.3589 86.7636 -25.6682C88.1805 -26.8821 89.9248 -27.7373 90.6882 -27.5923C91.4515 -27.4474 97.0513 -23.6158 103.324 -19.1621Z" fill="#F37D97"/>
</svg>
